<?xml version="1.0" encoding="UTF-8"?>
<svg version="1.1" xmlns="http://www.w3.org/2000/svg" width="500" height="500">
<path d="M0 0 C165 0 330 0 500 0 C500 165 500 330 500 500 C335 500 170 500 0 500 C0 335 0 170 0 0 Z " fill="#161513" transform="translate(0,0)"/>
<path d="M0 0 C1.06742432 0.00491455 2.13484863 0.0098291 3.23461914 0.01489258 C21.41104516 0.27738262 39.22621717 3.28658967 56.0625 10.3125 C56.0625 10.9725 56.0625 11.6325 56.0625 12.3125 C56.61067383 12.47613037 57.15884766 12.63976074 57.72363281 12.80834961 C63.45929068 14.60761595 68.58326807 16.92442458 73.8125 19.875 C74.59254395 20.31336182 75.37258789 20.75172363 76.17626953 21.20336914 C102.9973022 36.61816712 123.8798228 60.51104388 137.0625 88.3125 C137.0625 88.9725 137.0625 89.6325 137.0625 90.3125 C137.7225 90.3125 138.3825 90.3125 139.0625 90.3125 C147.35194405 108.85692639 151.29480173 127.83438785 151.3125 148.125 C151.31317474 148.81813293 151.31384949 149.51126587 151.31454468 150.22540283 C151.28337289 170.39616866 148.03292628 190.03940942 139.0625 208.3125 C138.4025 208.3125 137.7425 208.3125 137.0625 208.3125 C136.69125 209.57900391 136.69125 209.57900391 136.3125 210.87109375 C130.76165219 226.15327162 119.08944654 239.50786881 107.8125 250.875 C106.80207642 251.89388306 106.80207642 251.89388306 105.77124023 252.93334961 C102.08395178 256.56683566 98.40866068 259.4730884 94.0625 262.3125 C93.26972656 263.1271875 92.47695313 263.941875 91.66015625 264.78125 C88.54336801 267.81836095 85.29977145 269.74232973 81.5 271.8125 C80.7881958 272.2041333 80.0763916 272.5957666 79.34301758 272.99926758 C63.44086445 281.61643568 46.06938074 287.46379358 28.0625 289.3125 C26.70802614 289.51882666 25.3538075 289.72684531 24 289.9375 C18.35290309 290.47531875 12.73048645 290.39026201 7.0625 290.3125 C6.7325 289.3225 6.4025 288.3325 6.0625 287.3125 C6.3925 286.6525 6.7225 285.9925 7.0625 285.3125 C9.71804841 284.69787141 12.31511825 284.18858483 15 283.75 C20.17971697 283.02611209 20.17971697 283.02611209 25.0625 281.3125 C24.0725 281.168125 23.0825 281.02375 22.0625 280.875 C21.42699219 280.77960938 20.79148437 280.68421875 20.13671875 280.5859375 C18.74842176 280.40292283 17.35387228 280.26254109 15.95703125 280.1640625 C11.10754224 279.78192641 9.27005111 278.85186674 6.0625 275.3125 C3.45638923 274.59052838 3.45638923 274.59052838 1.0625 274.3125 C0.7325 273.9825 0.4025 273.6525 0.0625 273.3125 C-1.25007195 272.85225712 -2.57402164 272.42430695 -3.90234375 272.01171875 C-8.9285543 270.37349478 -13.69246727 268.31311983 -18.5 266.125 C-19.72686523 265.57295898 -19.72686523 265.57295898 -20.97851562 265.00976562 C-22.96659218 264.11454987 -24.95230308 263.2140835 -26.9375 262.3125 C-23.9375 261.3125 -23.9375 261.3125 -21.9375 261.3125 C-22.5975 260.6525 -23.2575 259.9925 -23.9375 259.3125 C-23.15375 259.4775 -22.37 259.6425 -21.5625 259.8125 C-19.05541961 260.3748707 -19.05541961 260.3748707 -16.9375 260.3125 C-20.5675 258.6625 -24.1975 257.0125 -27.9375 255.3125 C-26.9475 254.9825 -25.9575 254.6525 -24.9375 254.3125 C-24.9375 253.6525 -24.9375 252.9925 -24.9375 252.3125 C-36.22667464 249.42099478 -47.55265803 246.80293418 -58.9375 244.3125 C-51.6775 246.2925 -44.4175 248.2725 -36.9375 250.3125 C-38.2575 250.6425 -39.5775 250.9725 -40.9375 251.3125 C-40.9375 251.9725 -40.9375 252.6325 -40.9375 253.3125 C-37.9675 253.9725 -34.9975 254.6325 -31.9375 255.3125 C-36.21325663 256.38143916 -37.49674557 256.11634576 -41.578125 254.87890625 C-42.64804688 254.55986328 -43.71796875 254.24082031 -44.8203125 253.91210938 C-45.93148437 253.56986328 -47.04265625 253.22761719 -48.1875 252.875 C-49.31414062 252.53662109 -50.44078125 252.19824219 -51.6015625 251.84960938 C-54.3830361 251.01281011 -57.16136656 250.16681674 -59.9375 249.3125 C-57.9575 250.3025 -57.9575 250.3025 -55.9375 251.3125 C-59.05905879 252.31585818 -60.81150172 252.11920923 -63.9375 251.3125 C-64.9275 251.6425 -65.9175 251.9725 -66.9375 252.3125 C-67.9275 251.9825 -68.9175 251.6525 -69.9375 251.3125 C-66.9675 252.6325 -63.9975 253.9525 -60.9375 255.3125 C-61.2675 255.9725 -61.5975 256.6325 -61.9375 257.3125 C-61.34735107 257.54437012 -60.75720215 257.77624023 -60.14916992 258.01513672 C-57.47300102 259.06896216 -54.798993 260.12816624 -52.125 261.1875 C-51.19623047 261.55230469 -50.26746094 261.91710937 -49.31054688 262.29296875 C-48.41787109 262.64746094 -47.52519531 263.00195312 -46.60546875 263.3671875 C-45.78328857 263.69187012 -44.9611084 264.01655273 -44.11401367 264.35107422 C-41.9375 265.3125 -41.9375 265.3125 -38.9375 267.3125 C-43.93604788 266.78073959 -48.22241129 265.62699185 -52.921875 263.8359375 C-55.11835645 263.07026905 -55.11835645 263.07026905 -57.9375 264.3125 C-60.30272558 263.39046291 -62.64151807 262.39551035 -64.9375 261.3125 C-61.6375 262.9625 -58.3375 264.6125 -54.9375 266.3125 C-58.56076739 267.5202558 -59.57896369 266.85561128 -62.9375 265.3125 C-63.2675 266.3025 -63.5975 267.2925 -63.9375 268.3125 C-74.04710044 264.70063198 -82.27010851 256.58942248 -89.9375 249.3125 C-91.28328125 248.04599609 -91.28328125 248.04599609 -92.65625 246.75390625 C-113.87196635 226.22352905 -126.85140313 200.35501474 -133.5625 171.75 C-133.7790625 170.85603516 -133.995625 169.96207031 -134.21875 169.04101562 C-140.21319255 143.74964843 -137.64643984 116.6493398 -128.9375 92.3125 C-128.2775 92.3125 -127.6175 92.3125 -126.9375 92.3125 C-126.82535156 91.78785156 -126.71320313 91.26320313 -126.59765625 90.72265625 C-123.02553925 76.69100712 -114.84511684 64.49880952 -105.9375 53.3125 C-105.2775 52.3225 -104.6175 51.3325 -103.9375 50.3125 C-103.2775 50.3125 -102.6175 50.3125 -101.9375 50.3125 C-101.60298828 49.49458984 -101.60298828 49.49458984 -101.26171875 48.66015625 C-92.53952994 33.19692476 -72.27374606 21.97116789 -56.9375 14.3125 C-56.2775 14.3125 -55.6175 14.3125 -54.9375 14.3125 C-54.9375 13.6525 -54.9375 12.9925 -54.9375 12.3125 C-29.27253129 1.39123672 -29.27253129 1.39123672 -16.98828125 2.3671875 C-14.89328037 2.46587157 -14.89328037 2.46587157 -13.11572266 1.32788086 C-9.01770048 -0.58241663 -4.4483994 -0.02402282 0 0 Z " fill="#171613" transform="translate(242.9375,109.6875)"/>
<path d="M0 0 C0.92787962 2.97891649 1.01941783 4.91629479 0.2578125 7.93359375 C0.07863281 8.66513672 -0.10054688 9.39667969 -0.28515625 10.15039062 C-0.47980469 10.90513672 -0.67445312 11.65988281 -0.875 12.4375 C-1.24802734 13.93604086 -1.62043893 15.43473515 -1.9921875 16.93359375 C-2.24524658 17.9244397 -2.24524658 17.9244397 -2.50341797 18.93530273 C-9.12944067 46.4850933 -1.41631256 77.10330302 12.77929688 101.04541016 C21.12582195 114.4098661 31.02599679 126.65228464 46.78709412 130.54109192 C50.25160375 131.25955513 53.69070262 131.46492827 57.21875 131.6328125 C58.33376892 131.69515579 58.33376892 131.69515579 59.47131348 131.75875854 C61.81388356 131.88808909 64.15684809 132.00673213 66.5 132.125 C68.10160104 132.21152923 69.7031642 132.29876249 71.3046875 132.38671875 C75.20273508 132.59927679 79.10117374 132.80226109 83 133 C83 133.33 83 133.66 83 134 C79.04 134 75.08 134 71 134 C71 134.66 71 135.32 71 136 C71.71285156 135.98839844 72.42570312 135.97679687 73.16015625 135.96484375 C78.56325366 135.91393974 83.67828475 136.05391729 89 137 C89.33 136.34 89.66 135.68 90 135 C88.02 135 86.04 135 84 135 C84 134.67 84 134.34 84 134 C89.59554553 133.70894432 93.77000574 134.62367726 98.9375 136.5 C99.62134766 136.73847656 100.30519531 136.97695313 101.00976562 137.22265625 C102.67658097 137.80545882 104.33880316 138.40137051 106 139 C105.01 139.33 104.02 139.66 103 140 C102.34 139.67 101.68 139.34 101 139 C101 139.66 101 140.32 101 141 C102.98 141.99 102.98 141.99 105 143 C103.845 142.731875 102.69 142.46375 101.5 142.1875 C99.66735762 141.78847989 97.83391021 141.39315199 96 141 C94.28876953 140.62101562 94.28876953 140.62101562 92.54296875 140.234375 C81.70736231 137.99479677 71.04754605 137.328257 60 137 C60.57741943 137.03963867 61.15483887 137.07927734 61.74975586 137.12011719 C71.86506504 137.84543004 81.86265731 138.65617253 91.75 141 C92.45761475 141.1659668 93.16522949 141.33193359 93.89428711 141.50292969 C96.9361239 142.27236436 98.74307851 142.74307851 101 145 C100.13689209 144.81171631 100.13689209 144.81171631 99.25634766 144.61962891 C92.33122682 143.16553169 85.39868763 142.21135649 78.375 141.375 C77.27542969 141.2409375 76.17585938 141.106875 75.04296875 140.96875 C72.36237342 140.64241665 69.68140902 140.31956606 67 140 C70.27263834 140.67052723 73.54555812 141.2672288 76.84375 141.796875 C87.42735839 143.55987396 97.19517608 145.48608106 107 150 C107 150.99 107 151.98 107 153 C101.72684667 152.5547115 96.98229776 151.91626837 92 150 C92 150.66 92 151.32 92 152 C92.81791016 152.14695312 92.81791016 152.14695312 93.65234375 152.296875 C99.51809047 153.45999743 104.63118344 155.38539903 110 158 C110 157.34 110 156.68 110 156 C111.98 155.67 113.96 155.34 116 155 C116 154.67 116 154.34 116 154 C116.33 153.34 116.66 152.68 117 152 C116.14883791 149.56810832 115.15154357 147.30308715 114 145 C118.09928482 146.61043332 120.76118257 149.57873161 123.75 152.6875 C138.96867371 168.17498181 156.94772302 184.04291277 179.75 184.4375 C193.35865189 184.36365336 205.47049878 179.04870436 217.2734375 172.734375 C219 172 219 172 222 172 C203.09033035 185.73779419 180.36905764 195.0190023 157 197 C155.6451318 197.20372112 154.29085512 197.41145831 152.9375 197.625 C147.29040309 198.16281875 141.66798645 198.07776201 136 198 C135.67 197.01 135.34 196.02 135 195 C135.33 194.34 135.66 193.68 136 193 C138.65554841 192.38537141 141.25261825 191.87608483 143.9375 191.4375 C149.11721697 190.71361209 149.11721697 190.71361209 154 189 C153.01 188.855625 152.02 188.71125 151 188.5625 C150.36449219 188.46710938 149.72898437 188.37171875 149.07421875 188.2734375 C147.68592176 188.09042283 146.29137228 187.95004109 144.89453125 187.8515625 C140.04504224 187.46942641 138.20755111 186.53936674 135 183 C132.39388923 182.27802838 132.39388923 182.27802838 130 182 C129.67 181.67 129.34 181.34 129 181 C127.68742805 180.53975712 126.36347836 180.11180695 125.03515625 179.69921875 C120.0089457 178.06099478 115.24503273 176.00061983 110.4375 173.8125 C109.61958984 173.44447266 108.80167969 173.07644531 107.95898438 172.69726562 C105.97090782 171.80204987 103.98519692 170.9015835 102 170 C105 169 105 169 107 169 C106.34 168.34 105.68 167.68 105 167 C105.78375 167.165 106.5675 167.33 107.375 167.5 C109.88208039 168.0623707 109.88208039 168.0623707 112 168 C108.37 166.35 104.74 164.7 101 163 C101.99 162.67 102.98 162.34 104 162 C104 161.34 104 160.68 104 160 C92.71082536 157.10849478 81.38484197 154.49043418 70 152 C77.26 153.98 84.52 155.96 92 158 C90.68 158.33 89.36 158.66 88 159 C88 159.66 88 160.32 88 161 C90.97 161.66 93.94 162.32 97 163 C92.72424337 164.06893916 91.44075443 163.80384576 87.359375 162.56640625 C86.28945312 162.24736328 85.21953125 161.92832031 84.1171875 161.59960938 C83.00601563 161.25736328 81.89484375 160.91511719 80.75 160.5625 C79.62335938 160.22412109 78.49671875 159.88574219 77.3359375 159.53710938 C74.5544639 158.70031011 71.77613344 157.85431674 69 157 C70.98 157.99 70.98 157.99 73 159 C69.87844121 160.00335818 68.12599828 159.80670923 65 159 C64.01 159.33 63.02 159.66 62 160 C61.01 159.67 60.02 159.34 59 159 C61.97 160.32 64.94 161.64 68 163 C67.67 163.66 67.34 164.32 67 165 C67.59014893 165.23187012 68.18029785 165.46374023 68.78833008 165.70263672 C71.46449898 166.75646216 74.138507 167.81566624 76.8125 168.875 C77.74126953 169.23980469 78.67003906 169.60460937 79.62695312 169.98046875 C80.51962891 170.33496094 81.41230469 170.68945312 82.33203125 171.0546875 C83.56530151 171.54171143 83.56530151 171.54171143 84.82348633 172.03857422 C87 173 87 173 90 175 C85.00145212 174.46823959 80.71508871 173.31449185 76.015625 171.5234375 C73.81914355 170.75776905 73.81914355 170.75776905 71 172 C68.63477442 171.07796291 66.29598193 170.08301035 64 169 C68.95 171.475 68.95 171.475 74 174 C70.37673261 175.2077558 69.35853631 174.54311128 66 173 C65.67 173.99 65.34 174.98 65 176 C54.89039956 172.38813198 46.66739149 164.27692248 39 157 C37.65421875 155.73349609 37.65421875 155.73349609 36.28125 154.44140625 C15.06553365 133.91102905 2.08609687 108.04251474 -4.625 79.4375 C-4.8415625 78.54353516 -5.058125 77.64957031 -5.28125 76.72851562 C-11.27569255 51.43714843 -8.70893984 24.3368398 0 0 Z " fill="#5D4E2C" transform="translate(114,202)"/>
<path d="M0 0 C6.99142326 0.69574843 13.67822144 2.2200123 20.5 3.875 C21.58925781 4.13152344 22.67851562 4.38804687 23.80078125 4.65234375 C29.72317519 6.07744217 35.35352076 7.7112572 41 10 C40.67 10.99 40.34 11.98 40 13 C43.63 14.65 47.26 16.3 51 18 C50.34 18.66 49.68 19.32 49 20 C47.66158328 19.68770276 46.32860925 19.35169068 45 19 C43.65715511 19.29267132 42.32117491 19.6213369 41 20 C44.76394006 21.70319067 48.53713325 23.38480877 52.3125 25.0625 C53.38435547 25.54783203 54.45621094 26.03316406 55.56054688 26.53320312 C57.10258789 27.21479492 57.10258789 27.21479492 58.67578125 27.91015625 C59.62364502 28.33433838 60.57150879 28.75852051 61.5480957 29.19555664 C64.09276989 30.30030538 64.09276989 30.30030538 67 29 C67.99 29.99 67.99 29.99 69 31 C70.485 31.495 70.485 31.495 72 32 C74 33 74 33 76.3125 34.5 C80.10746289 36.61811882 83.45683884 36.9366312 87.75 37.4375 C89.35875 37.7159375 89.35875 37.7159375 91 38 C91.33 38.66 91.66 39.32 92 40 C87.67435795 41.58255197 83.571279 42.45144652 79 43 C80.95216435 44.95216435 82.53199953 45.84826645 85 47 C59.01633729 49.58787489 34.28260217 43.68195027 11 32 C9.98550781 31.49984375 8.97101563 30.9996875 7.92578125 30.484375 C2.15971343 27.47914028 2.15971343 27.47914028 1 24 C1.33 23.34 1.66 22.68 2 22 C3.65 22.33 5.3 22.66 7 23 C3.37 21.02 -0.26 19.04 -4 17 C-3.34 16.67 -2.68 16.34 -2 16 C0.34717989 16.92640117 2.55297788 18.05783406 4.80859375 19.1875 C7.12463236 20.30640315 7.12463236 20.30640315 10 19 C10.99 19.33 11.98 19.66 13 20 C9.37 18.35 5.74 16.7 2 15 C2.33 14.34 2.66 13.68 3 13 C-0.63 11.35 -4.26 9.7 -8 8 C-5 7 -5 7 -2 8 C-1.01 7.67 -0.02 7.34 1 7 C1.99 7.33 2.98 7.66 4 8 C3.34 7.34 2.68 6.68 2 6 C8.33654266 6.70208537 14.30812246 8.34372204 20.4375 10.0625 C21.45521484 10.34416016 22.47292969 10.62582031 23.52148438 10.91601562 C26.01542128 11.60682444 28.50818649 12.30157818 31 13 C29.02 12.34 27.04 11.68 25 11 C25.33 10.01 25.66 9.02 26 8 C17.42 5.69 8.84 3.38 0 1 C0 0.67 0 0.34 0 0 Z " fill="#5B3916" transform="translate(177,352)"/>
<path d="M0 0 C0.92787962 2.97891649 1.01941783 4.91629479 0.2578125 7.93359375 C0.07863281 8.66513672 -0.10054688 9.39667969 -0.28515625 10.15039062 C-0.47980469 10.90513672 -0.67445312 11.65988281 -0.875 12.4375 C-1.24802734 13.93604086 -1.62043893 15.43473515 -1.9921875 16.93359375 C-2.24524658 17.9244397 -2.24524658 17.9244397 -2.50341797 18.93530273 C-9.12795022 46.47889625 -1.41658482 77.09725017 12.76611328 101.04101562 C16.10414915 106.34065944 20.04933397 111.1526811 24 116 C25.11248598 117.49384034 26.21798781 118.99294091 27.3125 120.5 C29.64181024 123.63229183 32.15870474 126.32583975 35 129 C34.01 129 33.02 129 32 129 C32.495 129.5775 32.99 130.155 33.5 130.75 C35 133 35 133 35 137 C35.53625 136.608125 36.0725 136.21625 36.625 135.8125 C39 135 39 135 42.25 136.375 C43.1575 136.91125 44.065 137.4475 45 138 C45 138.99 45 139.98 45 141 C44.34 141.33 43.68 141.66 43 142 C47.455 144.475 47.455 144.475 52 147 C50.02 147.99 50.02 147.99 48 149 C48 149.66 48 150.32 48 151 C48.99 151.99 48.99 151.99 50 153 C49.67 153.33 49.34 153.66 49 154 C55.27 156.97 61.54 159.94 68 163 C67.67 163.66 67.34 164.32 67 165 C67.59014893 165.23187012 68.18029785 165.46374023 68.78833008 165.70263672 C71.46449898 166.75646216 74.138507 167.81566624 76.8125 168.875 C77.74126953 169.23980469 78.67003906 169.60460937 79.62695312 169.98046875 C80.51962891 170.33496094 81.41230469 170.68945312 82.33203125 171.0546875 C83.56530151 171.54171143 83.56530151 171.54171143 84.82348633 172.03857422 C87 173 87 173 90 175 C85.00145212 174.46823959 80.71508871 173.31449185 76.015625 171.5234375 C73.81914355 170.75776905 73.81914355 170.75776905 71 172 C68.63477442 171.07796291 66.29598193 170.08301035 64 169 C68.95 171.475 68.95 171.475 74 174 C70.37673261 175.2077558 69.35853631 174.54311128 66 173 C65.67 173.99 65.34 174.98 65 176 C54.89039956 172.38813198 46.66739149 164.27692248 39 157 C37.65421875 155.73349609 37.65421875 155.73349609 36.28125 154.44140625 C15.06553365 133.91102905 2.08609687 108.04251474 -4.625 79.4375 C-4.8415625 78.54353516 -5.058125 77.64957031 -5.28125 76.72851562 C-11.27569255 51.43714843 -8.70893984 24.3368398 0 0 Z " fill="#C69241" transform="translate(114,202)"/>
<path d="M0 0 C1.37478516 0.01740234 1.37478516 0.01740234 2.77734375 0.03515625 C3.69644531 0.04417969 4.61554688 0.05320313 5.5625 0.0625 C6.27277344 0.07410156 6.98304688 0.08570313 7.71484375 0.09765625 C10.28911062 6.260754 12.63895461 12.50244151 14.90234375 18.78515625 C15.16418457 19.49728271 15.42602539 20.20940918 15.69580078 20.94311523 C16.8517342 24.18763585 17.71187302 27.07529893 18.16796875 30.5078125 C18.88873039 35.23909781 20.54332453 39.40444661 22.27734375 43.84765625 C22.92891814 45.52823363 23.57625028 47.21046367 24.21875 48.89453125 C24.50564697 49.63026367 24.79254395 50.36599609 25.08813477 51.12402344 C25.71484375 53.09765625 25.71484375 53.09765625 25.71484375 56.09765625 C26.37484375 56.09765625 27.03484375 56.09765625 27.71484375 56.09765625 C27.96878906 56.65195313 28.22273438 57.20625 28.484375 57.77734375 C28.82855469 58.50179687 29.17273438 59.22625 29.52734375 59.97265625 C29.86378906 60.69195312 30.20023437 61.41125 30.546875 62.15234375 C31.70951472 64.40308431 31.70951472 64.40308431 34.71484375 66.09765625 C28.44484375 66.09765625 22.17484375 66.09765625 15.71484375 66.09765625 C16.70484375 65.76765625 17.69484375 65.43765625 18.71484375 65.09765625 C17.43543235 57.48852527 15.28727442 50.36539728 12.71484375 43.09765625 C12.31394531 43.53078125 11.91304687 43.96390625 11.5 44.41015625 C8.20561788 47.63730609 5.87976354 49.53355564 1.15234375 49.59765625 C-2.58088121 49.34455625 -5.76026307 48.3509516 -9.28515625 47.09765625 C-12.41209397 46.59670602 -12.41209397 46.59670602 -15.28515625 47.09765625 C-18.77206633 49.86313665 -18.87432202 53.70740711 -19.3671875 57.87890625 C-19.26919806 60.52928728 -18.78193998 61.91040572 -17.28515625 64.09765625 C-15.96515625 64.75765625 -14.64515625 65.41765625 -13.28515625 66.09765625 C-18.56515625 66.09765625 -23.84515625 66.09765625 -29.28515625 66.09765625 C-27.63515625 64.44765625 -25.98515625 62.79765625 -24.28515625 61.09765625 C-22.90328846 58.36598511 -22.90328846 58.36598511 -21.99609375 55.35546875 C-21.61702881 54.22077148 -21.23796387 53.08607422 -20.84741211 51.91699219 C-20.45561768 50.69786133 -20.06382324 49.47873047 -19.66015625 48.22265625 C-19.23820868 46.94894684 -18.81442733 45.67584361 -18.38891602 44.40332031 C-17.71969074 42.40183972 -17.05141602 40.40010728 -16.38825989 38.39660645 C-14.00632571 31.20706999 -11.49547267 24.06446555 -8.96051025 16.92767334 C-8.22913513 14.86592028 -7.50273833 12.80246165 -6.77685547 10.73876953 C-6.33065829 9.47809995 -5.88421933 8.2175159 -5.4375 6.95703125 C-5.04554443 5.84811523 -4.65358887 4.73919922 -4.24975586 3.59667969 C-2.90946378 0.12433606 -2.90946378 0.12433606 0 0 Z " fill="#E6BF5A" transform="translate(232.28515625,198.90234375)"/>
<path d="M0 0 C6.99142326 0.69574843 13.67822144 2.2200123 20.5 3.875 C21.58925781 4.13152344 22.67851562 4.38804687 23.80078125 4.65234375 C29.72317519 6.07744217 35.35352076 7.7112572 41 10 C40.67 10.99 40.34 11.98 40 13 C43.63 14.65 47.26 16.3 51 18 C50.34 18.66 49.68 19.32 49 20 C47.66158328 19.68770276 46.32860925 19.35169068 45 19 C43.65715511 19.29267132 42.32117491 19.6213369 41 20 C44.76394006 21.70319067 48.53713325 23.38480877 52.3125 25.0625 C53.38435547 25.54783203 54.45621094 26.03316406 55.56054688 26.53320312 C57.10258789 27.21479492 57.10258789 27.21479492 58.67578125 27.91015625 C59.62364502 28.33433838 60.57150879 28.75852051 61.5480957 29.19555664 C64.09276989 30.30030538 64.09276989 30.30030538 67 29 C67.99 29.99 67.99 29.99 69 31 C70.485 31.495 70.485 31.495 72 32 C74 33 74 33 76.4375 34.5 C78.98536996 36.10975995 78.98536996 36.10975995 82 37 C73.4971527 40.70636933 65.31426289 37.73841917 56.9375 34.9375 C56.07189453 34.65583984 55.20628906 34.37417969 54.31445312 34.08398438 C52.20697281 33.39701565 50.1024105 32.70229934 48 32 C48 31.34 48 30.68 48 30 C48.99 30 49.98 30 51 30 C49.02 29.34 47.04 28.68 45 28 C45 28.66 45 29.32 45 30 C36.97387849 28.4641908 29.48584127 25.84223105 21.8125 23.0625 C20.55548296 22.61482864 19.29832227 22.16756045 18.04101562 21.72070312 C12.51604638 19.73502859 7.21829876 17.7078713 2 15 C2.33 14.34 2.66 13.68 3 13 C-0.63 11.35 -4.26 9.7 -8 8 C-5 7 -5 7 -2 8 C-1.01 7.67 -0.02 7.34 1 7 C1.99 7.33 2.98 7.66 4 8 C3.34 7.34 2.68 6.68 2 6 C8.33654266 6.70208537 14.30812246 8.34372204 20.4375 10.0625 C21.45521484 10.34416016 22.47292969 10.62582031 23.52148438 10.91601562 C26.01542128 11.60682444 28.50818649 12.30157818 31 13 C29.02 12.34 27.04 11.68 25 11 C25.33 10.01 25.66 9.02 26 8 C17.42 5.69 8.84 3.38 0 1 C0 0.67 0 0.34 0 0 Z " fill="#3A2A17" transform="translate(177,352)"/>
<path d="M0 0 C0.54527344 0.37511719 1.09054688 0.75023437 1.65234375 1.13671875 C16.14141788 10.96947504 30.19306478 17.56023442 48 16 C58.48246092 13.94815927 67.91607763 9.74036999 77.2734375 4.734375 C79 4 79 4 82 4 C63.09033035 17.73779419 40.36905764 27.0190023 17 29 C15.6451318 29.20372112 14.29085512 29.41145831 12.9375 29.625 C7.29040309 30.16281875 1.66798645 30.07776201 -4 30 C-4.33 29.01 -4.66 28.02 -5 27 C-4.67 26.34 -4.34 25.68 -4 25 C-1.34445159 24.38537141 1.25261825 23.87608483 3.9375 23.4375 C9.11721697 22.71361209 9.11721697 22.71361209 14 21 C13.01 20.855625 12.02 20.71125 11 20.5625 C10.36449219 20.46710938 9.72898437 20.37171875 9.07421875 20.2734375 C7.68592176 20.09042283 6.29137228 19.95004109 4.89453125 19.8515625 C0.04504224 19.46942641 -1.79244889 18.53936674 -5 15 C-7.60611077 14.27802838 -7.60611077 14.27802838 -10 14 C-10.33 13.67 -10.66 13.34 -11 13 C-12.32520503 12.31731862 -13.65812182 11.6492959 -15 11 C-13.375 9.4375 -13.375 9.4375 -11 8 C-7.75 8.3125 -7.75 8.3125 -5 9 C-4.34 8.01 -3.68 7.02 -3 6 C-0.375 5.3125 -0.375 5.3125 2 5 C1.34 3.35 0.68 1.7 0 0 Z " fill="#623F19" transform="translate(254,370)"/>
<path d="M0 0 C5.94 0 11.88 0 18 0 C17.01 1.98 16.02 3.96 15 6 C14.57354045 8.43721945 14.57354045 8.43721945 14.64697266 10.86865234 C14.64331696 11.78335297 14.63966125 12.69805359 14.63589478 13.64047241 C14.64519012 14.61247589 14.65448547 15.58447937 14.6640625 16.5859375 C14.65155029 18.67187811 14.63851318 20.75781563 14.625 22.84375 C14.62107288 26.11111452 14.62501421 29.37817251 14.63964844 32.64550781 C14.64824962 35.81360955 14.62648608 38.98044698 14.6015625 42.1484375 C14.61490631 43.11639252 14.62825012 44.08434753 14.64199829 45.08163452 C14.57170712 51.58147094 13.26538965 56.00427376 9 61 C3.00265046 65.77340065 -2.49483986 66.74012825 -10 66 C-13.5 64.6875 -13.5 64.6875 -16 63 C-17.39195915 58.82412255 -15.82323219 56.86525224 -14 53 C-9 58 -9 58 -7.0625 60.25 C-4.44500335 62.47090625 -2.36850575 62.6937722 1 63 C5.09411583 58.05810246 4.4154085 52.61050132 4.36328125 46.53125 C4.36377975 45.41818481 4.36427826 44.30511963 4.36479187 43.1583252 C4.3624544 40.80816866 4.35274523 38.45800948 4.33618164 36.10791016 C4.31258611 32.51311833 4.31562398 28.91906837 4.32226562 25.32421875 C4.31668869 23.03905808 4.30957872 20.75390054 4.30078125 18.46875 C4.30169266 17.39467896 4.30260406 16.32060791 4.30354309 15.21398926 C4.28924507 13.7071759 4.28924507 13.7071759 4.2746582 12.16992188 C4.26774712 10.85018372 4.26774712 10.85018372 4.26069641 9.50378418 C3.84964818 5.55598893 2.81169455 2.81169455 0 0 Z " fill="#E9C25B" transform="translate(267,231)"/>
<path d="M0 0 C0.92787962 2.97891649 1.01941783 4.91629479 0.2578125 7.93359375 C0.07863281 8.66513672 -0.10054688 9.39667969 -0.28515625 10.15039062 C-0.47980469 10.90513672 -0.67445312 11.65988281 -0.875 12.4375 C-1.24802734 13.93604086 -1.62043893 15.43473515 -1.9921875 16.93359375 C-2.24524658 17.9244397 -2.24524658 17.9244397 -2.50341797 18.93530273 C-7.97092142 41.66818213 -3.93667044 69.67464015 7.25390625 90.21875 C9.06213995 93.67891891 8.85392793 95.18782175 8 99 C8.97988305 101.51599383 9.97694837 103.70860257 11.25 106.0625 C11.71986328 106.97999023 11.71986328 106.97999023 12.19921875 107.91601562 C13.89698958 111.17418579 15.78219396 114.083172 18 117 C19.00484883 119.33124929 20.00522247 121.66443537 21 124 C21.66 124.66 22.32 125.32 23 126 C23.61510586 129.38308224 24 132.56114107 24 136 C23.01 136.99 23.01 136.99 22 138 C15.7528366 130.15781616 11.18399486 122.08558452 6.96142578 113.03662109 C6.05569915 111.11798941 5.10950558 109.22538022 4.15234375 107.33203125 C-11.2961336 75.71664042 -12.32884956 35.78087058 -0.98828125 2.76171875 C-0.66214844 1.85035156 -0.33601563 0.93898437 0 0 Z " fill="#C67E2A" transform="translate(114,202)"/>
<path d="M0 0 C0.66 0 1.32 0 2 0 C3.71723995 4.62345544 5.42597928 9.24993 7.12695312 13.87939453 C7.70666258 15.45349374 8.28867644 17.02674628 8.87304688 18.59912109 C9.71312555 20.86076147 10.54484092 23.12532777 11.375 25.390625 C11.63748535 26.09181458 11.8999707 26.79300415 12.17041016 27.51544189 C13.41074169 30.92479385 14 33.31909865 14 37 C9.06923301 38.02724312 5.86140935 37.86141199 1.05078125 36.48828125 C-3.9698274 35.29289824 -8.4473532 35.46179869 -13 38 C-10.85592366 29.36956803 -7.95391255 21.12536773 -4.8125 12.8125 C-4.34395408 11.56201634 -3.87585249 10.3113661 -3.40820312 9.06054688 C-2.27647115 6.03870583 -1.14033289 3.01860349 0 0 Z " fill="#1C1A15" transform="translate(230,203)"/>
<path d="M0 0 C0.66 0 1.32 0 2 0 C3.47615558 2.14057592 4.84317713 4.27868793 6.1875 6.5 C9.30974642 11.52733522 12.54025951 16.05145187 16.58203125 20.3984375 C18 22 18 22 19.5625 24.6875 C21.54760261 27.88092594 24.038025 29.69624167 27 32 C26.34 32.66 25.68 33.32 25 34 C24.67 34 24.34 34 24 34 C24.7425 34.61875 24.7425 34.61875 25.5 35.25 C27 37 27 37 27 41 C27.804375 40.4121875 27.804375 40.4121875 28.625 39.8125 C31 39 31 39 34.25 40.375 C35.1575 40.91125 36.065 41.4475 37 42 C37 42.99 37 43.98 37 45 C36.01 45.495 36.01 45.495 35 46 C37.97 47.65 40.94 49.3 44 51 C42.68 51.66 41.36 52.32 40 53 C40 53.66 40 54.32 40 55 C40.66 55.66 41.32 56.32 42 57 C41 59 41 59 39.125 59.8125 C37 60 37 60 35.25 58.6875 C34 57 34 57 34 55 C32.02053408 53.63636792 30.0180755 52.30581356 28 51 C26.125 49.25 26.125 49.25 25 48 C25.33 47.34 25.66 46.68 26 46 C26 45.67 26 45.34 26 45 C23.72546028 42.73306743 21.42380187 40.50217131 19.0859375 38.30078125 C16.07947407 35.38134702 14.30052665 32.97727198 13 29 C12.525625 28.38125 12.05125 27.7625 11.5625 27.125 C9.94076761 24.91944394 9.0404732 22.72149795 8.0234375 20.1953125 C6.18024992 16.24160479 3.80791581 12.57825987 1.5234375 8.8671875 C0.07610243 6.14322867 -0.68473172 4.05484089 -1 1 C-0.67 0.67 -0.34 0.34 0 0 Z " fill="#8B642D" transform="translate(122,298)"/>
<path d="M0 0 C0.9075 0.185625 1.815 0.37125 2.75 0.5625 C5.8053212 1.18203792 5.8053212 1.18203792 7.95996094 0.49243164 C11.4304517 -0.34528735 14.81566225 0.72454119 18.25 1.4375 C18.99507812 1.58509766 19.74015625 1.73269531 20.5078125 1.88476562 C22.34007665 2.2488694 24.17026053 2.62341409 26 3 C26 3.33 26 3.66 26 4 C23.36 4 20.72 4 18 4 C20.64 4.66 23.28 5.32 26 6 C26 6.33 26 6.66 26 7 C20.555 6.505 20.555 6.505 15 6 C16.06436279 6.26216309 17.12872559 6.52432617 18.2253418 6.79443359 C22.18652832 7.77112109 26.14653185 8.75253279 30.10620117 9.73535156 C31.81779763 10.15948688 33.52970921 10.58235266 35.24194336 11.00390625 C37.70771548 11.61121812 40.17230587 12.22313645 42.63671875 12.8359375 C43.39836838 13.02247894 44.16001801 13.20902039 44.94474792 13.4012146 C48.76489858 14.35595185 52.37950272 15.41661917 56 17 C52.51519614 18.16160129 51.36422114 17.77692595 47.88671875 16.8203125 C46.3852832 16.41619141 46.3852832 16.41619141 44.85351562 16.00390625 C43.80873047 15.71386719 42.76394531 15.42382812 41.6875 15.125 C39.62956324 14.56269414 37.57098553 14.00272788 35.51171875 13.4453125 C34.59865967 13.19281738 33.68560059 12.94032227 32.74487305 12.68017578 C29.86373922 11.96623476 26.92788634 11.48798106 24 11 C34.89 13.97 34.89 13.97 46 17 C44.68 17.33 43.36 17.66 42 18 C42 18.66 42 19.32 42 20 C46.455 20.99 46.455 20.99 51 22 C46.72424337 23.06893916 45.44075443 22.80384576 41.359375 21.56640625 C40.28945312 21.24736328 39.21953125 20.92832031 38.1171875 20.59960938 C36.45042969 20.08624023 36.45042969 20.08624023 34.75 19.5625 C33.62335938 19.22412109 32.49671875 18.88574219 31.3359375 18.53710938 C28.5544639 17.70031011 25.77613344 16.85431674 23 16 C24.32 16.66 25.64 17.32 27 18 C23.87844121 19.00335818 22.12599828 18.80670923 19 18 C18.01 18.33 17.02 18.66 16 19 C12.8984375 18.109375 12.8984375 18.109375 9.375 16.75 C8.20710937 16.31171875 7.03921875 15.8734375 5.8359375 15.421875 C3 14 3 14 2 11 C1.34 10.34 0.68 9.68 0 9 C0 8.34 0 7.68 0 7 C1.32 6.67 2.64 6.34 4 6 C2.68 5.34 1.36 4.68 0 4 C0 2.68 0 1.36 0 0 Z " fill="#685730" transform="translate(160,343)"/>
<path d="M0 0 C7.45554011 -0.0977657 14.82010432 0.12287094 22.25 0.75 C23.24201416 0.83362793 24.23402832 0.91725586 25.25610352 1.00341797 C33.49571083 1.78445504 41.13202064 3.43948855 49 6 C48.34 5.67 47.68 5.34 47 5 C47 4.34 47 3.68 47 3 C53.22417879 3.90854026 56.83941544 4.9568672 61 10 C61.66 10.66 62.32 11.32 63 12 C63.59765379 14.39061516 64 16.53525961 64 19 C64.495 19.99 64.495 19.99 65 21 C64.21625 20.814375 63.4325 20.62875 62.625 20.4375 C60.02910225 19.74037734 60.02910225 19.74037734 58 21 C57.34 20.67 56.68 20.34 56 20 C56 20.66 56 21.32 56 22 C50 20 44 18 38 16 C38 15.34 38 14.68 38 14 C38.58007812 14.13277344 39.16015625 14.26554687 39.7578125 14.40234375 C44.15770982 15.39704001 48.53894158 16.31368332 53 17 C53 16.01 53 15.02 53 14 C36.72747909 8.60308352 19.96473864 6.07341497 3 4 C3 3.67 3 3.34 3 3 C10.55692901 2.7823453 17.82690058 3.43849077 25.3125 4.4375 C26.37017578 4.57220703 27.42785156 4.70691406 28.51757812 4.84570312 C33.04947002 5.43184687 37.5254889 6.06328653 42 7 C28.26410519 3.35947149 14.10031272 2.3678095 0 1 C0 0.67 0 0.34 0 0 Z " fill="#352D1D" transform="translate(168,338)"/>
<path d="M0 0 C2.95747404 0.96289852 5.84081346 1.92966176 8.6875 3.1875 C11.10969675 4.30389193 11.10969675 4.30389193 14 3 C16.36010742 3.62084961 16.36010742 3.62084961 19.10546875 4.65234375 C20.08837891 5.01650391 21.07128906 5.38066406 22.08398438 5.75585938 C23.10814453 6.14580078 24.13230469 6.53574219 25.1875 6.9375 C26.22326172 7.32357422 27.25902344 7.70964844 28.32617188 8.10742188 C30.88731454 9.06342444 33.44493599 10.02789257 36 11 C36 11.99 36 12.98 36 14 C49.86 18.455 49.86 18.455 64 23 C59.51105195 24.12223701 56.77966738 23.3798151 52.5 22.125 C51.17710312 21.75253389 49.854187 21.38013609 48.53125 21.0078125 C47.3659375 20.67523438 46.200625 20.34265625 45 20 C43.68 19.67 42.36 19.34 41 19 C46.61 20.65 52.22 22.3 58 24 C57.67 24.66 57.34 25.32 57 26 C61.62 26.99 66.24 27.98 71 29 C71 29.33 71 29.66 71 30 C60.5977045 29.63818103 51.04118889 27.58545582 41 25 C41.33 24.34 41.66 23.68 42 23 C43.98 23.33 45.96 23.66 48 24 C46.90300781 23.66226562 45.80601562 23.32453125 44.67578125 22.9765625 C43.22132093 22.52614898 41.76689569 22.07562216 40.3125 21.625 C39.2306543 21.29242188 39.2306543 21.29242188 38.12695312 20.953125 C34.3471027 19.77947281 30.65079726 18.54096768 27 17 C27.66 16.34 28.32 15.68 29 15 C26.0745356 14.7763932 26.0745356 14.7763932 24 16 C20.84651743 14.81744404 17.8186061 13.41802391 14.75 12.03125 C13.8425 11.6909375 12.935 11.350625 12 11 C11.01 11.495 11.01 11.495 10 12 C7.375 10.5625 7.375 10.5625 5 9 C5.33 8.01 5.66 7.02 6 6 C7.65 6.33 9.3 6.66 11 7 C7.37 5.02 3.74 3.04 0 1 C0 0.67 0 0.34 0 0 Z " fill="#2E2519" transform="translate(173,368)"/>
<path d="M0 0 C0.99 0.495 0.99 0.495 2 1 C-10.04162166 9.74818667 -22.87269043 15.96344199 -37 20.5625 C-38.04994141 20.90909668 -39.09988281 21.25569336 -40.18164062 21.61279297 C-46.35510259 23.53143893 -51.53892479 24.37016577 -58 24 C-58 23.67 -58 23.34 -58 23 C-59.65 22.67 -61.3 22.34 -63 22 C-63 21.67 -63 21.34 -63 21 C-60.69 20.34 -58.38 19.68 -56 19 C-55.67 17.68 -55.34 16.36 -55 15 C-55.99 14.34 -56.98 13.68 -58 13 C-57.67 12.34 -57.34 11.68 -57 11 C-55.845 11.33 -54.69 11.66 -53.5 12 C-37.84861531 15.39072384 -23.17531183 12.03334437 -9 5 C-8.24460937 4.63519531 -7.48921875 4.27039063 -6.7109375 3.89453125 C-3.11653968 2.30603647 -3.11653968 2.30603647 0 0 Z " fill="#C27825" transform="translate(334,373)"/>
<path d="M0 0 C1.175625 0.5259375 1.175625 0.5259375 2.375 1.0625 C3.674375 1.5265625 3.674375 1.5265625 5 2 C5.66 1.67 6.32 1.34 7 1 C8.75336863 2.03903326 10.50584522 3.07976368 12.24609375 4.140625 C14.04290282 5.21289994 14.04290282 5.21289994 16.4375 4.75 C16.953125 4.5025 17.46875 4.255 18 4 C18.433125 4.639375 18.86625 5.27875 19.3125 5.9375 C20.91239177 8.26746003 20.91239177 8.26746003 24 9 C24.33 9.99 24.66 10.98 25 12 C25.66 12.66 26.32 13.32 27 14 C27 14.66 27 15.32 27 16 C25.01388388 17.98611612 23.55856751 18.91454712 21 20 C20.01 20 19.02 20 18 20 C16.7934375 20.3403125 16.7934375 20.3403125 15.5625 20.6875 C13 21 13 21 10.6875 19.5625 C9.8521875 18.7890625 9.8521875 18.7890625 9 18 C9.33 17.67 9.66 17.34 10 17 C8.35 16.01 6.7 15.02 5 14 C5.66 13.67 6.32 13.34 7 13 C7.99 13.33 8.98 13.66 10 14 C8.35 13.01 6.7 12.02 5 11 C5.99 10.67 6.98 10.34 8 10 C6.02 8.68 4.04 7.36 2 6 C2.99 5.67 3.98 5.34 5 5 C3.7625 4.319375 3.7625 4.319375 2.5 3.625 C1.675 3.08875 0.85 2.5525 0 2 C0 1.34 0 0.68 0 0 Z " fill="#3F301B" transform="translate(226,360)"/>
<path d="M0 0 C1.4835001 0.42257276 2.96176424 0.86356322 4.4375 1.3125 C5.67306641 1.67794922 5.67306641 1.67794922 6.93359375 2.05078125 C7.61550781 2.36402344 8.29742187 2.67726563 9 3 C9.33 3.99 9.66 4.98 10 6 C12.50447516 7.21869929 12.50447516 7.21869929 15 8 C14.01 8.99 13.02 9.98 12 11 C12.33 11.66 12.66 12.32 13 13 C11.68 13.33 10.36 13.66 9 14 C10.25541557 16.51083114 11.50063488 16.87125446 14 18 C3.60886221 19.30618118 -6.51074452 20.33358056 -17 20 C-17.33 19.01 -17.66 18.02 -18 17 C-17.67 16.34 -17.34 15.68 -17 15 C-14.34445159 14.38537141 -11.74738175 13.87608483 -9.0625 13.4375 C-3.88278303 12.71361209 -3.88278303 12.71361209 1 11 C-1.31 10.34 -3.62 9.68 -6 9 C-4.68 7.68 -3.36 6.36 -2 5 C-1.67 5.66 -1.34 6.32 -1 7 C1.47266765 6.65555119 1.47266765 6.65555119 4 6 C4.33 5.34 4.66 4.68 5 4 C3.35 3.34 1.7 2.68 0 2 C0 1.34 0 0.68 0 0 Z " fill="#8A531A" transform="translate(267,380)"/>
<path d="M0 0 C6.875 1.875 6.875 1.875 8 3 C8 2.34 8 1.68 8 1 C13.54050113 1.56825653 18.03715966 3.62886517 23 6 C22.67 6.66 22.34 7.32 22 8 C22.59014893 8.23187012 23.18029785 8.46374023 23.78833008 8.70263672 C26.46449898 9.75646216 29.138507 10.81566624 31.8125 11.875 C32.74126953 12.23980469 33.67003906 12.60460937 34.62695312 12.98046875 C35.9659668 13.51220703 35.9659668 13.51220703 37.33203125 14.0546875 C38.56530151 14.54171143 38.56530151 14.54171143 39.82348633 15.03857422 C42 16 42 16 45 18 C40.00145212 17.46823959 35.71508871 16.31449185 31.015625 14.5234375 C28.81914355 13.75776905 28.81914355 13.75776905 26 15 C23.63477442 14.07796291 21.29598193 13.08301035 19 12 C22.3 13.65 25.6 15.3 29 17 C25.37673261 18.2077558 24.35853631 17.54311128 21 16 C20.67 16.99 20.34 17.98 20 19 C18.35 18.34 16.7 17.68 15 17 C15 15.68 15 14.36 15 13 C12.69938526 11.10370971 12.69938526 11.10370971 9.75 9.5 C6.00542676 7.32061875 2.84348857 5.30386291 0 2 C0 1.34 0 0.68 0 0 Z " fill="#816837" transform="translate(159,359)"/>
<path d="M0 0 C0.66 0 1.32 0 2 0 C3.47617226 2.14060009 4.84349074 4.27845988 6.1875 6.5 C8.84835434 10.79709891 11.48172397 14.78286276 14.9375 18.5 C17.70583124 21.49209935 19.08040998 23.9538039 20 28 C20.309375 29.175625 20.309375 29.175625 20.625 30.375 C20.74875 30.91125 20.8725 31.4475 21 32 C20.01 31.67 19.02 31.34 18 31 C19.51553404 34.47775179 21.5773456 36.9557984 24.125 39.75 C25.21167969 40.94882812 25.21167969 40.94882812 26.3203125 42.171875 C26.87460938 42.77515625 27.42890625 43.3784375 28 44 C25 44 25 44 22.58984375 41.98828125 C21.71457031 41.10527344 20.83929688 40.22226562 19.9375 39.3125 C19.05964844 38.44238281 18.18179688 37.57226562 17.27734375 36.67578125 C15.09036861 34.10617924 14.0780456 32.15328338 13 29 C12.525625 28.38125 12.05125 27.7625 11.5625 27.125 C9.94076761 24.91944394 9.0404732 22.72149795 8.0234375 20.1953125 C6.18024992 16.24160479 3.80791581 12.57825987 1.5234375 8.8671875 C0.07610243 6.14322867 -0.68473172 4.05484089 -1 1 C-0.67 0.67 -0.34 0.34 0 0 Z " fill="#A95E16" transform="translate(122,298)"/>
<path d="M0 0 C4.09878494 1.61023694 6.76238121 4.5779279 9.75 7.6875 C13.22791634 11.24663142 16.70377142 14.71213286 20.5 17.9375 C23.37655849 20.39456037 25.84570352 22.85831764 28 26 C28 26.66 28 27.32 28 28 C27.01 28.33 26.02 28.66 25 29 C23.10479998 27.10479998 21.59336327 25.14757658 20 23 C18.77119784 21.7058258 18.77119784 21.7058258 16 20 C16 19.34 16 18.68 16 18 C15.319375 18.2475 14.63875 18.495 13.9375 18.75 C9.63689625 19.11600883 7.65507664 17.23365795 4 15 C3.01 15 2.02 15 1 15 C0.34 15 -0.32 15 -1 15 C-1.99 15.495 -1.99 15.495 -3 16 C-4.9453125 15.22265625 -4.9453125 15.22265625 -7.125 14.0625 C-7.84945312 13.68222656 -8.57390625 13.30195313 -9.3203125 12.91015625 C-9.87460938 12.60980469 -10.42890625 12.30945313 -11 12 C-8 11 -8 11 -5.8125 11.9375 C-5.214375 12.288125 -4.61625 12.63875 -4 13 C-4 12.34 -4 11.68 -4 11 C-2.02 10.67 -0.04 10.34 2 10 C2 9.67 2 9.34 2 9 C2.33 8.34 2.66 7.68 3 7 C2.14883791 4.56810832 1.15154357 2.30308715 0 0 Z " fill="#604926" transform="translate(228,347)"/>
<path d="M0 0 C2.73209609 0.46835933 5.06788659 1.02909425 7.625 2.125 C10.09435498 3.31560114 10.09435498 3.31560114 13 2 C13.99 2.99 14.98 3.98 16 5 C15.01 5 14.02 5 13 5 C14.98 6.32 16.96 7.64 19 9 C18.01 9.33 17.02 9.66 16 10 C18.31 11.32 20.62 12.64 23 14 C22.01 14.495 22.01 14.495 21 15 C20.01 14.67 19.02 14.34 18 14 C19.32 14.99 20.64 15.98 22 17 C21.67 17.33 21.34 17.66 21 18 C21.66 18.66 22.32 19.32 23 20 C17.8307147 19.33673121 13.37748635 17.08075343 8.6875 14.9375 C7.85154297 14.56044922 7.01558594 14.18339844 6.15429688 13.79492188 C4.10072738 12.86788193 2.04943713 11.93613122 0 11 C3 10 3 10 5 10 C4.34 9.34 3.68 8.68 3 8 C3.78375 8.165 4.5675 8.33 5.375 8.5 C7.88208039 9.0623707 7.88208039 9.0623707 10 9 C6.37 7.35 2.74 5.7 -1 4 C-0.01 3.67 0.98 3.34 2 3 C2 2.34 2 1.68 2 1 C1.34 0.67 0.68 0.34 0 0 Z " fill="#564122" transform="translate(216,361)"/>
<path d="M0 0 C5.88068459 -0.35781943 10.25899584 0.85581813 15.75 2.875 C22.44167696 5.23184294 28.93525997 7.09745612 36 8 C35.01 7.34 34.02 6.68 33 6 C34.258125 6.12375 35.51625 6.2475 36.8125 6.375 C37.87404297 6.47941406 37.87404297 6.47941406 38.95703125 6.5859375 C41 7 41 7 44 9 C42.68 9 41.36 9 40 9 C40 9.66 40 10.32 40 11 C44.455 11.99 44.455 11.99 49 13 C44.72424337 14.06893916 43.44075443 13.80384576 39.359375 12.56640625 C37.75449219 12.0878418 37.75449219 12.0878418 36.1171875 11.59960938 C35.00601563 11.25736328 33.89484375 10.91511719 32.75 10.5625 C31.62335938 10.22412109 30.49671875 9.88574219 29.3359375 9.53710938 C26.5544639 8.70031011 23.77613344 7.85431674 21 7 C22.32 7.66 23.64 8.32 25 9 C21.87844121 10.00335818 20.12599828 9.80670923 17 9 C16.01 9.33 15.02 9.66 14 10 C10.8984375 9.1796875 10.8984375 9.1796875 7.375 7.875 C6.20710937 7.45992188 5.03921875 7.04484375 3.8359375 6.6171875 C1 5 1 5 0.1015625 2.3203125 C0.06804687 1.55460937 0.03453125 0.78890625 0 0 Z " fill="#726036" transform="translate(162,352)"/>
<path d="M0 0 C0.78375 0.185625 1.5675 0.37125 2.375 0.5625 C4.97089775 1.25962266 4.97089775 1.25962266 7 0 C9.07196631 0.73178866 11.1108552 1.55899003 13.125 2.4375 C14.22070312 2.91058594 15.31640625 3.38367188 16.4453125 3.87109375 C17.70988281 4.42990234 17.70988281 4.42990234 19 5 C18.67 4.34 18.34 3.68 18 3 C21.37462715 3.54723683 23.08235 4.0549 26 6 C25.01 6.33 24.02 6.66 23 7 C31.60369272 9.9375631 40.185701 12.74603165 49 15 C49 15.33 49 15.66 49 16 C40.45988044 15.55052002 32.98466367 12.85091417 25 10 C25 10.66 25 11.32 25 12 C19.60154528 11.08416944 15.15569258 8.91237823 10.25 6.5625 C9.37472656 6.15451172 8.49945313 5.74652344 7.59765625 5.32617188 C6.76621094 4.93107422 5.93476563 4.53597656 5.078125 4.12890625 C4.31918945 3.76869385 3.56025391 3.40848145 2.77832031 3.03735352 C1 2 1 2 0 0 Z " fill="#895F28" transform="translate(179,378)"/>
<path d="M0 0 C4.04704664 0.86722428 7.04798117 2.04798117 10 5 C10.99 5.66 11.98 6.32 13 7 C12.01 7.495 12.01 7.495 11 8 C13.90377931 10.24905951 13.90377931 10.24905951 17.5625 10.5 C21 11 21 11 23 13 C22.625 15.125 22.625 15.125 22 17 C21.01 16.67 20.02 16.34 19 16 C19 15.34 19 14.68 19 14 C16.525 13.505 16.525 13.505 14 13 C18.41009417 17.85110358 23.58004353 21.348107 29 25 C27.02 25.99 27.02 25.99 25 27 C22.86741811 25.42609449 20.74425407 23.84167605 18.625 22.25 C18.02171875 21.8065625 17.4184375 21.363125 16.796875 20.90625 C13.64349117 18.52369333 11.47075613 16.68439419 10 13 C9.07178855 11.66602754 8.11190282 10.35365524 7.125 9.0625 C6.33609375 8.02802734 6.33609375 8.02802734 5.53125 6.97265625 C3.71167072 4.62855539 1.87125201 2.3030794 0 0 Z " fill="#A48949" transform="translate(146,347)"/>
<path d="M0 0 C6.99142326 0.69574843 13.67822144 2.2200123 20.5 3.875 C21.58925781 4.13152344 22.67851562 4.38804687 23.80078125 4.65234375 C29.72317519 6.07744217 35.35352076 7.7112572 41 10 C40.67 10.99 40.34 11.98 40 13 C43.63 14.65 47.26 16.3 51 18 C50.34 18.66 49.68 19.32 49 20 C48.02160156 19.60167969 47.04320312 19.20335937 46.03515625 18.79296875 C39.08249996 15.97784806 32.1576711 13.26031719 25 11 C25.33 10.01 25.66 9.02 26 8 C17.42 5.69 8.84 3.38 0 1 C0 0.67 0 0.34 0 0 Z " fill="#1A1814" transform="translate(177,352)"/>
<path d="M0 0 C3.32192509 0.60012747 6.37992183 1.40847894 9.5390625 2.59375 C10.36664063 2.90183594 11.19421875 3.20992188 12.046875 3.52734375 C12.89765625 3.84832031 13.7484375 4.16929687 14.625 4.5 C16.32540158 5.13573573 18.02591761 5.77116543 19.7265625 6.40625 C20.47502441 6.68791016 21.22348633 6.96957031 21.99462891 7.25976562 C23.65175772 7.87145476 25.32422688 8.44140896 27 9 C27 9.66 27 10.32 27 11 C24.69 10.67 22.38 10.34 20 10 C36.335 15.445 36.335 15.445 53 21 C53 21.66 53 22.32 53 23 C44.97387849 21.4641908 37.48584127 18.84223105 29.8125 16.0625 C28.55548296 15.61482864 27.29832227 15.16756045 26.04101562 14.72070312 C20.51604638 12.73502859 15.21829876 10.7078713 10 8 C10.33 7.34 10.66 6.68 11 6 C7.37 4.35 3.74 2.7 0 1 C0 0.67 0 0.34 0 0 Z " fill="#201D16" transform="translate(169,359)"/>
<path d="M0 0 C6.8604449 0.70695441 13.32410188 2.66382686 19.9375 4.5625 C21.67870117 5.0565332 21.67870117 5.0565332 23.45507812 5.56054688 C26.30456206 6.3696596 29.15279247 7.18291987 32 8 C31.67 8.99 31.34 9.98 31 11 C29.68 10.67 28.36 10.34 27 10 C27.33 10.66 27.66 11.32 28 12 C21.37306459 11.39073437 15.43742348 9.27365014 9.1875 7.0625 C8.13884766 6.70220703 7.09019531 6.34191406 6.00976562 5.97070312 C-1.74379185 3.25620815 -1.74379185 3.25620815 -4 1 C-2.7934375 1.2475 -2.7934375 1.2475 -1.5625 1.5 C0.7284443 2.03191839 0.7284443 2.03191839 2 2 C1.34 1.34 0.68 0.68 0 0 Z " fill="#332C1D" transform="translate(179,358)"/>
<path d="M0 0 C0.33 0.99 0.66 1.98 1 3 C1.66 3.66 2.32 4.32 3 5 C3 5.66 3 6.32 3 7 C1.01388388 8.98611612 -0.44143249 9.91454712 -3 11 C-3.99 11 -4.98 11 -6 11 C-7.2065625 11.3403125 -7.2065625 11.3403125 -8.4375 11.6875 C-11 12 -11 12 -13.3125 10.5625 C-14.1478125 9.7890625 -14.1478125 9.7890625 -15 9 C-14.67 8.67 -14.34 8.34 -14 8 C-15.65 7.01 -17.3 6.02 -19 5 C-18.34 4.67 -17.68 4.34 -17 4 C-16.360625 4.33 -15.72125 4.66 -15.0625 5 C-12.8881755 6.35074272 -12.8881755 6.35074272 -10 5 C-9.71125 4.360625 -9.4225 3.72125 -9.125 3.0625 C-8 1 -8 1 -5.5625 -0.3125 C-3 -1 -3 -1 0 0 Z " fill="#49341A" transform="translate(250,369)"/>
<path d="M0 0 C19.95903723 2.20435945 42.40046192 5.83810455 60 16 C59.34 16.66 58.68 17.32 58 18 C56.90171875 17.45472656 56.90171875 17.45472656 55.78125 16.8984375 C45.23525611 12.00208319 34.36662684 9.37814025 23.07714844 6.72900391 C18.20620098 5.57503301 13.3538847 4.34838336 8.5 3.125 C6.84384124 2.71057271 5.18760071 2.29647196 3.53125 1.8828125 C2.3659375 1.59148437 1.200625 1.30015625 0 1 C0 0.67 0 0.34 0 0 Z " fill="#1A1814" transform="translate(167,347)"/>
<path d="M0 0 C1.3921875 0.2784375 1.3921875 0.2784375 2.8125 0.5625 C6.01343771 1.24123881 6.01343771 1.24123881 9 0 C11.48046875 0.99609375 11.48046875 0.99609375 14.1875 2.4375 C15.08855469 2.91058594 15.98960937 3.38367188 16.91796875 3.87109375 C17.60503906 4.24363281 18.29210937 4.61617188 19 5 C17.02 5.99 17.02 5.99 15 7 C15 7.66 15 8.32 15 9 C15.66 9.66 16.32 10.32 17 11 C16 13 16 13 14.125 13.8125 C12 14 12 14 10.25 12.6875 C9 11 9 11 9 9 C7.02053408 7.63636792 5.0180755 6.30581356 3 5 C1.125 3.375 1.125 3.375 0 2 C0 1.34 0 0.68 0 0 Z " fill="#876C38" transform="translate(147,344)"/>
<path d="M0 0 C5.59554553 -0.29105568 9.77000574 0.62367726 14.9375 2.5 C15.62134766 2.73847656 16.30519531 2.97695313 17.00976562 3.22265625 C18.67658097 3.80545882 20.33880316 4.40137051 22 5 C21.01 5.33 20.02 5.66 19 6 C18.34 5.67 17.68 5.34 17 5 C17 5.66 17 6.32 17 7 C18.32 7.66 19.64 8.32 21 9 C19.845 8.731875 18.69 8.46375 17.5 8.1875 C15.66743366 7.78813083 13.83398056 7.39282369 12 7 C10.35837891 6.63841797 10.35837891 6.63841797 8.68359375 6.26953125 C-3.45038205 3.77694185 -15.65586367 2.86118286 -28 2 C-28 1.67 -28 1.34 -28 1 C-16.88143519 0.63479167 -6.03514084 1.76776094 5 3 C5.33 2.34 5.66 1.68 6 1 C4.02 1 2.04 1 0 1 C0 0.67 0 0.34 0 0 Z " fill="#5F4F2D" transform="translate(198,336)"/>
<path d="M0 0 C0.92787962 2.97891649 1.01941783 4.91629479 0.2578125 7.93359375 C0.07863281 8.66513672 -0.10054688 9.39667969 -0.28515625 10.15039062 C-0.47980469 10.90513672 -0.67445312 11.65988281 -0.875 12.4375 C-1.24802734 13.93604086 -1.62043893 15.43473515 -1.9921875 16.93359375 C-2.24524658 17.9244397 -2.24524658 17.9244397 -2.50341797 18.93530273 C-3.52035218 23.16352919 -4.14623436 27.16799295 -4.31640625 31.51953125 C-4.35830078 32.54111328 -4.40019531 33.56269531 -4.44335938 34.61523438 C-4.50233398 36.19788086 -4.50233398 36.19788086 -4.5625 37.8125 C-4.60568359 38.88693359 -4.64886719 39.96136719 -4.69335938 41.06835938 C-4.79910983 43.71212082 -4.90120233 46.3559711 -5 49 C-5.66 49 -6.32 49 -7 49 C-7 50.98 -7 52.96 -7 55 C-7.33 55 -7.66 55 -8 55 C-8.62883021 35.92548362 -6.44460004 18.0092183 0 0 Z " fill="#C09B4F" transform="translate(114,202)"/>
<path d="M0 0 C1.46067199 0.45082469 2.91848032 0.91093537 4.375 1.375 C5.18710938 1.63023437 5.99921875 1.88546875 6.8359375 2.1484375 C9 3 9 3 11 5 C10.67 5.33 10.34 5.66 10 6 C10.59014893 6.23187012 11.18029785 6.46374023 11.78833008 6.70263672 C14.46449898 7.75646216 17.138507 8.81566624 19.8125 9.875 C20.74126953 10.23980469 21.67003906 10.60460937 22.62695312 10.98046875 C23.51962891 11.33496094 24.41230469 11.68945312 25.33203125 12.0546875 C26.15421143 12.37937012 26.9763916 12.70405273 27.82348633 13.03857422 C30 14 30 14 33 16 C28.00145212 15.46823959 23.71508871 14.31449185 19.015625 12.5234375 C16.81914355 11.75776905 16.81914355 11.75776905 14 13 C11.34175909 11.7711083 8.85391409 10.49812607 6.3125 9.0625 C5.2596582 8.48338867 5.2596582 8.48338867 4.18554688 7.89257812 C2.45204328 6.93738227 0.72534991 5.96984614 -1 5 C-0.67 3.35 -0.34 1.7 0 0 Z " fill="#846936" transform="translate(171,361)"/>
<path d="M0 0 C3.31530866 0.55255144 6.2084168 1.0747702 9 3 C10.45140033 5.90280067 11.29748724 8.83869257 12 12 C11.01 11.67 10.02 11.34 9 11 C10.51553404 14.47775179 12.5773456 16.9557984 15.125 19.75 C15.84945312 20.54921875 16.57390625 21.3484375 17.3203125 22.171875 C18.15175781 23.07679688 18.15175781 23.07679688 19 24 C16 24 16 24 13.58984375 21.98828125 C12.71457031 21.10527344 11.83929688 20.22226562 10.9375 19.3125 C10.05964844 18.44238281 9.18179688 17.57226562 8.27734375 16.67578125 C6.08904859 14.10462828 5.08471964 12.15213083 4 9 C3.484375 8.34 2.96875 7.68 2.4375 7 C0.76667369 4.67537209 0.39012631 2.80890941 0 0 Z " fill="#A16B29" transform="translate(131,318)"/>
<path d="M0 0 C18.76355802 -0.46585385 37.36647441 2.04348622 54 11 C54 11.66 54 12.32 54 13 C50.89722641 11.97985768 47.8135108 10.93179272 44.74584961 9.80981445 C35.10776224 6.37320956 25.68124815 4.55883162 15.5625 3.1875 C14.04083342 2.97067591 12.5193472 2.75258223 10.99804688 2.53320312 C7.33398151 2.00756726 3.66781908 1.49885933 0 1 C0 0.67 0 0.34 0 0 Z " fill="#191714" transform="translate(171,341)"/>
<path d="M0 0 C0.4125 0.38671875 0.825 0.7734375 1.25 1.171875 C9.6991099 8.7911616 17.86871694 10.93633516 29 13 C29 13.99 29 14.98 29 16 C24.59904164 16.16926763 21.87285627 16.00320152 18 14 C15.80252869 14.29805007 15.80252869 14.29805007 14 15 C13.67 14.34 13.34 13.68 13 13 C12.34 13 11.68 13 11 13 C10.67 14.98 10.34 16.96 10 19 C9.34 18.67 8.68 18.34 8 18 C7.855625 17.21625 7.71125 16.4325 7.5625 15.625 C6.94615917 12.74874279 6.22271144 11.83615293 4 10 C4.33 9.34 4.66 8.68 5 8 C5.99 8.66 6.98 9.32 8 10 C7.236875 9.236875 6.47375 8.47375 5.6875 7.6875 C4.800625 6.800625 3.91375 5.91375 3 5 C2.401875 4.443125 1.80375 3.88625 1.1875 3.3125 C0 2 0 2 0 0 Z " fill="#5C4422" transform="translate(140,321)"/>
<path d="M0 0 C5 5 5 5 7.1875 7.25 C8.89252684 9.07107096 8.89252684 9.07107096 11 10 C11 10.66 11 11.32 11 12 C11.66 12.33 12.32 12.66 13 13 C7.25610776 13.34463353 2.95481327 13.34449896 -2 10 C-3.39195915 5.82412255 -1.82323219 3.86525224 0 0 Z " fill="#DDB857" transform="translate(253,284)"/>
<path d="M0 0 C16.26971003 -0.21358073 32.55582041 0.52821245 48 6 C48.99 6.33 49.98 6.66 51 7 C51 7.66 51 8.32 51 9 C46.52180496 8.32895548 42.2497307 7.28380957 37.875 6.125 C25.49000902 3.01412544 12.68349876 2.16834097 0 1 C0 0.67 0 0.34 0 0 Z " fill="#1B1914" transform="translate(168,338)"/>
<path d="M0 0 C1.4835001 0.42257276 2.96176424 0.86356322 4.4375 1.3125 C5.67306641 1.67794922 5.67306641 1.67794922 6.93359375 2.05078125 C7.95646484 2.52064453 7.95646484 2.52064453 9 3 C9.33 3.99 9.66 4.98 10 6 C12.50447516 7.21869929 12.50447516 7.21869929 15 8 C13.25 10 13.25 10 11 12 C9.68 12 8.36 12 7 12 C7 11.34 7 10.68 7 10 C5.783125 10.020625 4.56625 10.04125 3.3125 10.0625 C0.08022678 10.06824116 -2.84934741 9.78766315 -6 9 C-4.68 7.68 -3.36 6.36 -2 5 C-1.67 5.66 -1.34 6.32 -1 7 C1.47266765 6.65555119 1.47266765 6.65555119 4 6 C4.33 5.34 4.66 4.68 5 4 C2.525 3.01 2.525 3.01 0 2 C0 1.34 0 0.68 0 0 Z " fill="#A75E17" transform="translate(267,380)"/>
<path d="M0 0 C0.66 0 1.32 0 2 0 C3.51075416 3.91260327 5.00671908 7.83069813 6.5 11.75 C6.92925781 12.86117187 7.35851562 13.97234375 7.80078125 15.1171875 C8.40986328 16.72207031 8.40986328 16.72207031 9.03125 18.359375 C9.59682617 19.83615723 9.59682617 19.83615723 10.17382812 21.34277344 C11 24 11 24 11 28 C10.01 28 9.02 28 8 28 C6.46425219 23.90125875 4.94898776 19.79524311 3.4375 15.6875 C2.99986328 14.52025391 2.56222656 13.35300781 2.11132812 12.15039062 C1.70205078 11.03212891 1.29277344 9.91386719 0.87109375 8.76171875 C0.48880615 7.73006592 0.10651855 6.69841309 -0.28735352 5.63549805 C-1 3 -1 3 0 0 Z " fill="#070603" transform="translate(250,227)"/>
<path d="M0 0 C4.59353349 0.42730544 8.61703971 1.48371909 13 2.9375 C19.29882588 4.96160066 25.33353458 5.84063034 31.8828125 6.5078125 C35 7 35 7 38 9 C36.35 9 34.7 9 33 9 C38.61 9.66 44.22 10.32 50 11 C50 11.33 50 11.66 50 12 C43.17363148 12.39808197 36.71160027 11.7949382 30 10.625 C29.2582251 10.49891357 28.5164502 10.37282715 27.75219727 10.24291992 C24.25979429 9.60039473 21.99206533 8.99471022 19 7 C17.53287135 6.45259727 16.0470231 5.95411451 14.55078125 5.4921875 C13.70322266 5.22792969 12.85566406 4.96367187 11.98242188 4.69140625 C11.10134766 4.42199219 10.22027344 4.15257812 9.3125 3.875 C8.41982422 3.59785156 7.52714844 3.32070313 6.60742188 3.03515625 C4.40624718 2.35243896 2.20378527 1.67423334 0 1 C0 0.67 0 0.34 0 0 Z " fill="#503719" transform="translate(208,385)"/>
<path d="M0 0 C1.9774481 0.04585612 1.9774481 0.04585612 3.828125 -0.25390625 C14.18398708 -1.57344351 24.61688083 -0.6059224 35 0 C35 0.33 35 0.66 35 1 C31.04 1 27.08 1 23 1 C23 1.66 23 2.32 23 3 C21.44539063 2.98259766 21.44539063 2.98259766 19.859375 2.96484375 C18.48958514 2.95546163 17.11979332 2.94636188 15.75 2.9375 C15.06808594 2.92912109 14.38617188 2.92074219 13.68359375 2.91210938 C10.28196444 2.89559661 7.26203294 3.03238574 4 4 C0.4375 4.3125 0.4375 4.3125 -3 4 C-4.9375 2 -4.9375 2 -6 0 C-3.48314464 -1.25842768 -2.63419763 -0.74086808 0 0 Z " fill="#3B311E" transform="translate(162,335)"/>
<path d="M0 0 C0.99 0 1.98 0 3 0 C3.33 3.96 3.66 7.92 4 12 C0 11 0 11 -2 8 C-2.33 9.65 -2.66 11.3 -3 13 C-3.66 13 -4.32 13 -5 13 C-6.3271261 9.0186217 -6.06915913 5.14954773 -6 1 C-2.125 2.75 -2.125 2.75 -1 5 C-0.67 3.35 -0.34 1.7 0 0 Z " fill="#DCBA5F" transform="translate(226,129)"/>
<path d="M0 0 C3.70867456 0.30853226 7.4168669 0.62253207 11.125 0.9375 C12.17171875 1.02451172 13.2184375 1.11152344 14.296875 1.20117188 C19.23957562 1.62349123 24.12188144 2.06319868 29 3 C29 3.66 29 4.32 29 5 C30.32 5.33 31.64 5.66 33 6 C33 6.33 33 6.66 33 7 C30.22829605 6.88613541 27.45821954 6.75939222 24.6875 6.625 C23.50897461 6.57859375 23.50897461 6.57859375 22.30664062 6.53125 C21.54931641 6.49257813 20.79199219 6.45390625 20.01171875 6.4140625 C18.96697388 6.36693115 18.96697388 6.36693115 17.90112305 6.31884766 C16 6 16 6 13 4 C10.78610171 3.39896659 8.55397421 2.86324191 6.3125 2.375 C5.13300781 2.11460937 3.95351562 1.85421875 2.73828125 1.5859375 C1.83464844 1.39257812 0.93101562 1.19921875 0 1 C0 0.67 0 0.34 0 0 Z " fill="#4B4027" transform="translate(169,345)"/>
<path d="M0 0 C0.99 0 1.98 0 3 0 C3 1.65 3 3.3 3 5 C3.66 5.33 4.32 5.66 5 6 C5.33 4.68 5.66 3.36 6 2 C6.99 2.33 7.98 2.66 9 3 C7.68 6.3 6.36 9.6 5 13 C4.01 13 3.02 13 2 13 C2 11.35 2 9.7 2 8 C1.34 8 0.68 8 0 8 C-0.33 8.99 -0.66 9.98 -1 11 C-1.99 10.67 -2.98 10.34 -4 10 C-2.68 6.7 -1.36 3.4 0 0 Z " fill="#DDBB60" transform="translate(295,138)"/>
<path d="M0 0 C0.99 0 1.98 0 3 0 C3.33 0.99 3.66 1.98 4 3 C4.99 2.01 5.98 1.02 7 0 C7.99 0.33 8.98 0.66 10 1 C9.195625 1.8353125 9.195625 1.8353125 8.375 2.6875 C7.694375 3.8321875 7.694375 3.8321875 7 5 C7.66096786 7.65245602 7.66096786 7.65245602 9 10 C9.33 10.66 9.66 11.32 10 12 C8.68 12 7.36 12 6 12 C5.34 11.01 4.68 10.02 4 9 C3.67 9.99 3.34 10.98 3 12 C2.01 12 1.02 12 0 12 C0 8.04 0 4.08 0 0 Z " fill="#D7B75E" transform="translate(245,128)"/>
<path d="M0 0 C3.93434196 0.98358549 4.67149983 1.308193 7.25 4.0625 C8.03117188 4.88427734 8.03117188 4.88427734 8.828125 5.72265625 C9.21484375 6.14417969 9.6015625 6.56570312 10 7 C9.67 7.99 9.34 8.98 9 10 C6.03 9.505 6.03 9.505 3 9 C2.67 10.32 2.34 11.64 2 13 C1.34 13 0.68 13 0 13 C0 8.71 0 4.42 0 0 Z " fill="#E4C263" transform="translate(197,137)"/>
<path d="M0 0 C0.99 0.99 1.98 1.98 3 3 C2.34 3 1.68 3 1 3 C0.83201904 3.57540527 0.66403809 4.15081055 0.4909668 4.74365234 C-1.58199817 11.75717224 -3.85852828 18.69283462 -6.1875 25.625 C-6.55552734 26.72457031 -6.92355469 27.82414062 -7.30273438 28.95703125 C-8.20043943 31.63848791 -9.09955224 34.31946338 -10 37 C-10.66 36.67 -11.32 36.34 -12 36 C-9.91241244 27.74816978 -7.2459577 19.79880349 -4.3125 11.8125 C-3.68891602 10.09836914 -3.68891602 10.09836914 -3.05273438 8.34960938 C-2.03907179 5.56495009 -1.02143976 2.78181383 0 0 Z " fill="#C6A54F" transform="translate(229,200)"/>
<path d="M0 0 C0.79921875 0.01804688 1.5984375 0.03609375 2.421875 0.0546875 C3.02515625 0.07789063 3.6284375 0.10109375 4.25 0.125 C3.65300869 3.45635891 2.52987719 5.33775667 0.3125 7.875 C-0.21214844 8.48859375 -0.73679687 9.1021875 -1.27734375 9.734375 C-2.75 11.125 -2.75 11.125 -4.75 11.125 C-4.75 8.485 -4.75 5.845 -4.75 3.125 C-6.07 2.795 -7.39 2.465 -8.75 2.125 C-5.68753253 0.34090198 -3.52920727 -0.10380021 0 0 Z " fill="#D7B65E" transform="translate(362.75,201.875)"/>
<path d="M0 0 C0.66 0 1.32 0 2 0 C2 2.31 2 4.62 2 7 C4.97 7.495 4.97 7.495 8 8 C7.67 8.99 7.34 9.98 7 11 C5.02 10.34 3.04 9.68 1 9 C1.66 10.32 2.32 11.64 3 13 C2.01 13.33 1.02 13.66 0 14 C-0.84158536 12.73461631 -1.67299748 11.46246221 -2.5 10.1875 C-3.19609375 9.12595703 -3.19609375 9.12595703 -3.90625 8.04296875 C-5 6 -5 6 -5 3 C-4.01 3.33 -3.02 3.66 -2 4 C-1.34 2.68 -0.68 1.36 0 0 Z " fill="#CEAF5A" transform="translate(177,147)"/>
<path d="M0 0 C-0.30893932 1.6256807 -0.6222695 3.25052748 -0.9375 4.875 C-1.11152344 5.77992188 -1.28554688 6.68484375 -1.46484375 7.6171875 C-2 10 -2 10 -3 12 C-3.66 12 -4.32 12 -5 12 C-5 10.68 -5 9.36 -5 8 C-6.98 8 -8.96 8 -11 8 C-11 7.01 -11 6.02 -11 5 C-9.609375 3.61328125 -9.609375 3.61328125 -7.75 2.3125 C-7.14671875 1.87550781 -6.5434375 1.43851563 -5.921875 0.98828125 C-4 0 -4 0 0 0 Z " fill="#DEBC60" transform="translate(324,152)"/>
<path d="M0 0 C1.2065625 0.0309375 1.2065625 0.0309375 2.4375 0.0625 C3.0975 1.3825 3.7575 2.7025 4.4375 4.0625 C3.4475 4.0625 2.4575 4.0625 1.4375 4.0625 C1.4375 3.4025 1.4375 2.7425 1.4375 2.0625 C0.4475 2.0625 -0.5425 2.0625 -1.5625 2.0625 C0.07162443 3.77090281 1.30656094 4.99703047 3.4375 6.0625 C3.480221 7.72861905 3.47813832 9.39632885 3.4375 11.0625 C2.4375 12.0625 2.4375 12.0625 -0.5 12.25 C-3.5625 12.0625 -3.5625 12.0625 -5.5625 10.0625 C-5.5625 9.0725 -5.5625 8.0825 -5.5625 7.0625 C-3.5625 8.0625 -1.5625 9.0625 0.4375 10.0625 C0.4375 9.0725 0.4375 8.0825 0.4375 7.0625 C-2.0375 6.0725 -2.0375 6.0725 -4.5625 5.0625 C-3.43829114 0.08386076 -3.43829114 0.08386076 0 0 Z " fill="#E3C062" transform="translate(274.5625,130.9375)"/>
<path d="M0 0 C8.26218593 1.59445693 16.06288986 4.26018069 24 7 C23.01 7.66 22.02 8.32 21 9 C26.445 10.98 26.445 10.98 32 13 C27.84020092 14.03994977 27.03612635 13.95550771 23.234375 12.56640625 C22.34492188 12.24736328 21.45546875 11.92832031 20.5390625 11.59960938 C19.61867187 11.25736328 18.69828125 10.91511719 17.75 10.5625 C16.34621094 10.05493164 16.34621094 10.05493164 14.9140625 9.53710938 C12.60571366 8.70092178 10.30144809 7.85495944 8 7 C11.76624671 5.74458443 13.37188934 6.62938042 17 8 C17 7.34 17 6.68 17 6 C16.443125 5.89042969 15.88625 5.78085937 15.3125 5.66796875 C9.96658969 4.55724752 5.06936184 3.02774474 0 1 C0 0.67 0 0.34 0 0 Z " fill="#856A37" transform="translate(179,362)"/>
<path d="M0 0 C4.02511566 1.21689543 7.59257117 2.49453762 11 5 C11 5.99 11 6.98 11 8 C7.04 8.99 3.08 9.98 -1 11 C-1 10.01 -1 9.02 -1 8 C-0.34 7.67 0.32 7.34 1 7 C0.67 4.69 0.34 2.38 0 0 Z " fill="#E1BE61" transform="translate(368,274)"/>
<path d="M0 0 C4.56454251 0.54339792 7.9728176 1.79463821 12 4 C12 4.66 12 5.32 12 6 C10.35 6.33 8.7 6.66 7 7 C6.67 8.65 6.34 10.3 6 12 C3 11 3 11 2.05078125 9.2578125 C1.80714844 8.55398437 1.56351563 7.85015625 1.3125 7.125 C1.06113281 6.42632812 0.80976563 5.72765625 0.55078125 5.0078125 C0 3 0 3 0 0 Z " fill="#D3B35C" transform="translate(154,165)"/>
<path d="M0 0 C7.08703739 0.54515672 13.32796106 2.60918605 20 5 C16.52128379 6.15957207 15.65780355 5.77456651 12.3125 4.5625 C11.50425781 4.27503906 10.69601563 3.98757813 9.86328125 3.69140625 C9.24839844 3.46324219 8.63351563 3.23507812 8 3 C8 3.66 8 4.32 8 5 C8.62648437 5.12117188 9.25296875 5.24234375 9.8984375 5.3671875 C10.71570313 5.53476562 11.53296875 5.70234375 12.375 5.875 C13.18710938 6.03742188 13.99921875 6.19984375 14.8359375 6.3671875 C17 7 17 7 19 9 C10.61527763 7.20327378 2.31243331 5.10105676 -6 3 C-6 2.67 -6 2.34 -6 2 C-3.03 2 -0.06 2 3 2 C2.01 1.34 1.02 0.68 0 0 Z " fill="#766336" transform="translate(198,349)"/>
<path d="M0 0 C1 1 1 1 1.0625 4.5625 C1.041875 5.696875 1.02125 6.83125 1 8 C0.01 8.495 0.01 8.495 -1 9 C-1.66 6.69 -2.32 4.38 -3 2 C-4.32 2.33 -5.64 2.66 -7 3 C-7 4.32 -7 5.64 -7 7 C-6.34 7.33 -5.68 7.66 -5 8 C-4.67 7.01 -4.34 6.02 -4 5 C-3.67 6.65 -3.34 8.3 -3 10 C-5.375 10.125 -5.375 10.125 -8 10 C-10 8 -10 8 -10.3125 5.0625 C-10 2 -10 2 -8.9375 0.0625 C-5.84787273 -1.63181173 -3.32782582 -0.73951685 0 0 Z " fill="#E8C464" transform="translate(375,226)"/>
<path d="M0 0 C7.72329019 1.43993546 14.7282249 4.05532446 22 7 C18.37673261 8.2077558 17.35853631 7.54311128 14 6 C14 6.66 14 7.32 14 8 C14.54527344 8.10957031 15.09054688 8.21914063 15.65234375 8.33203125 C21.25535065 9.51009937 26.6054387 11.087035 32 13 C28.55559783 14.19309111 26.62372653 13.80482315 23.234375 12.56640625 C22.34492188 12.24736328 21.45546875 11.92832031 20.5390625 11.59960938 C19.61867187 11.25736328 18.69828125 10.91511719 17.75 10.5625 C16.34621094 10.05493164 16.34621094 10.05493164 14.9140625 9.53710938 C12.60571366 8.70092178 10.30144809 7.85495944 8 7 C8.99 6.67 9.98 6.34 11 6 C11 5.34 11 4.68 11 4 C10.37351563 3.87882812 9.74703125 3.75765625 9.1015625 3.6328125 C8.28429687 3.46523438 7.46703125 3.29765625 6.625 3.125 C5.81289062 2.96257812 5.00078125 2.80015625 4.1640625 2.6328125 C2 2 2 2 0 0 Z " fill="#795322" transform="translate(211,376)"/>
<path d="M0 0 C1.99609375 0.3046875 1.99609375 0.3046875 4.4375 0.875 C5.24058594 1.05804688 6.04367187 1.24109375 6.87109375 1.4296875 C9 2 9 2 11 3 C10.25 5.9375 10.25 5.9375 9 9 C7 9.9375 7 9.9375 5 10 C4.34 9.67 3.68 9.34 3 9 C3 7.02 3 5.04 3 3 C1.68 2.34 0.36 1.68 -1 1 C-0.67 0.67 -0.34 0.34 0 0 Z " fill="#E6C363" transform="translate(363,299)"/>
<path d="M0 0 C0.78375 0.185625 1.5675 0.37125 2.375 0.5625 C4.97089775 1.25962266 4.97089775 1.25962266 7 0 C12.72727273 2.45454545 12.72727273 2.45454545 14 5 C16.11015954 6.12706706 16.11015954 6.12706706 18.5625 7.125 C19.38878906 7.47820312 20.21507812 7.83140625 21.06640625 8.1953125 C21.70449219 8.46085937 22.34257812 8.72640625 23 9 C23 9.33 23 9.66 23 10 C16.99462248 10.69071435 13.17946402 8.35277376 8.125 5.5 C6.949375 4.85611328 6.949375 4.85611328 5.75 4.19921875 C3.8268703 3.14384269 1.91086748 2.07737013 0 1 C0 0.67 0 0.34 0 0 Z " fill="#4D3B20" transform="translate(179,378)"/>
<path d="M0 0 C4.73776707 1.49613697 9.26629503 3.33691135 13.828125 5.29296875 C16.01388553 6.28560635 16.01388553 6.28560635 18 5 C20 7 20 7 20 9 C18.906875 8.814375 17.81375 8.62875 16.6875 8.4375 C13.06375867 7.7421932 13.06375867 7.7421932 10 9 C7.95703125 8.44140625 7.95703125 8.44140625 5.8125 7.5625 C5.09707031 7.27503906 4.38164062 6.98757813 3.64453125 6.69140625 C2.83048828 6.34916016 2.83048828 6.34916016 2 6 C2 5.01 2 4.02 2 3 C1.34 2.67 0.68 2.34 0 2 C0 1.34 0 0.68 0 0 Z " fill="#2A2115" transform="translate(226,376)"/>
<path d="M0 0 C0.804375 0.433125 0.804375 0.433125 1.625 0.875 C4.05536079 2.09360791 4.05536079 2.09360791 7 2.9375 C9.85964906 3.95029237 11.70342535 5.05674453 14 7 C13.01 7 12.02 7 11 7 C11 7.66 11 8.32 11 9 C11.99 9.33 12.98 9.66 14 10 C11.66785852 11.20628008 9.50357861 12.1654738 7 13 C6.34 12.34 5.68 11.68 5 11 C5.375 8.875 5.375 8.875 6 7 C2.535 5.02 2.535 5.02 -1 3 C-0.67 2.01 -0.34 1.02 0 0 Z " fill="#4F3E23" transform="translate(151,333)"/>
<path d="M0 0 C6.8604449 0.70695441 13.32410188 2.66382686 19.9375 4.5625 C21.67870117 5.0565332 21.67870117 5.0565332 23.45507812 5.56054688 C26.30456206 6.3696596 29.15279247 7.18291987 32 8 C31.67 8.99 31.34 9.98 31 11 C26.90408325 9.76293734 22.81078918 8.51764496 18.71972656 7.26464844 C17.3275158 6.83952114 15.93461267 6.41665443 14.54101562 5.99609375 C12.53850143 5.39134587 10.53861439 4.77852368 8.5390625 4.1640625 C7.33459473 3.79748535 6.13012695 3.4309082 4.88916016 3.05322266 C2 2 2 2 0 0 Z " fill="#1B1915" transform="translate(179,358)"/>
<path d="M0 0 C1.62490954 -0.02698189 3.24994633 -0.04638757 4.875 -0.0625 C5.77992188 -0.07410156 6.68484375 -0.08570313 7.6171875 -0.09765625 C10 0 10 0 12 1 C11.67 1.99 11.34 2.98 11 4 C7.00204108 4.95619733 3.29196078 5.1039592 -0.8125 5.0625 C-1.97394531 5.05347656 -3.13539063 5.04445313 -4.33203125 5.03515625 C-5.21246094 5.02355469 -6.09289062 5.01195312 -7 5 C-7.33 4.01 -7.66 3.02 -8 2 C-5.36 1.67 -2.72 1.34 0 1 C0 0.67 0 0.34 0 0 Z " fill="#7A4A18" transform="translate(257,395)"/>
<path d="M0 0 C5.11365014 1.0681847 10.07227969 2.23107476 15 4 C14.01 4.33 13.02 4.66 12 5 C12 5.66 12 6.32 12 7 C12.61488281 7.12117188 13.22976562 7.24234375 13.86328125 7.3671875 C14.67152344 7.53476562 15.47976562 7.70234375 16.3125 7.875 C17.11300781 8.03742188 17.91351563 8.19984375 18.73828125 8.3671875 C21 9 21 9 24 11 C18.73378394 10.40421223 14.05591981 9.18691204 9.0625 7.4375 C8.37865234 7.20353516 7.69480469 6.96957031 6.99023438 6.72851562 C5.32491499 6.15788171 3.66217507 5.57972902 2 5 C2.99 4.67 3.98 4.34 5 4 C5 3.34 5 2.68 5 2 C3.35 1.67 1.7 1.34 0 1 C0 0.67 0 0.34 0 0 Z " fill="#715125" transform="translate(204,377)"/>
<path d="M0 0 C6.23440168 1.58960332 12.16287645 3.27600901 18 6 C18 6.66 18 7.32 18 8 C18.66 8.33 19.32 8.66 20 9 C19.01 9.495 19.01 9.495 18 10 C14.84651743 8.81744404 11.8186061 7.41802391 8.75 6.03125 C7.8425 5.6909375 6.935 5.350625 6 5 C5.01 5.495 5.01 5.495 4 6 C1.375 4.5625 1.375 4.5625 -1 3 C-0.67 2.01 -0.34 1.02 0 0 Z " fill="#493B22" transform="translate(179,374)"/>
<path d="M0 0 C7.0219788 1.43779918 13.75016167 3.40681968 20.5625 5.625 C21.57119141 5.94984375 22.57988281 6.2746875 23.61914062 6.609375 C26.08061692 7.40264698 28.5408403 8.19958143 31 9 C26.84223339 10.24902473 24.19377817 9.48763159 20 8.3125 C19.01664673 8.03937988 19.01664673 8.03937988 18.01342773 7.76074219 C11.94125235 6.04704099 5.95454244 4.08464428 0 2 C0 1.34 0 0.68 0 0 Z " fill="#1E1914" transform="translate(206,382)"/>
<path d="M0 0 C8.74218041 1.56110365 16.75983375 4.78481857 25 8 C25 8.66 25 9.32 25 10 C16.185701 7.74603165 7.60369272 4.9375631 -1 2 C-0.67 1.34 -0.34 0.68 0 0 Z " fill="#1F1C15" transform="translate(200,370)"/>
<path d="M0 0 C3.54188654 1.12430857 7.08346953 2.24957039 10.625 3.375 C12.12353516 3.85066406 12.12353516 3.85066406 13.65234375 4.3359375 C18.44566599 5.85964258 23.23478738 7.38991109 28 9 C28 9.66 28 10.32 28 11 C18.59496422 9.28999349 8.57361828 6.28680914 0 2 C0 1.34 0 0.68 0 0 Z " fill="#201C15" transform="translate(194,371)"/>
<path d="M0 0 C5.3140805 0.56371876 9.76118299 1.83686683 14.6875 3.875 C15.33783203 4.13152344 15.98816406 4.38804687 16.65820312 4.65234375 C20.14280978 6.06607815 23.12282303 7.56714656 26 10 C25.01 10.495 25.01 10.495 24 11 C21.59074899 10.15423079 19.28210676 9.24941536 16.9375 8.25 C15.58154914 7.68812126 14.22477816 7.12821754 12.8671875 6.5703125 C12.20686523 6.29864258 11.54654297 6.02697266 10.86621094 5.74707031 C7.29926866 4.31917348 3.66208501 3.1564479 0 2 C0 1.34 0 0.68 0 0 Z " fill="#191713" transform="translate(202,361)"/>
<path d="M0 0 C0.33 0.66 0.66 1.32 1 2 C-3.35590568 3.62849969 -7.23934612 4.34118446 -11.875 4.625 C-13.02742187 4.69976562 -14.17984375 4.77453125 -15.3671875 4.8515625 C-16.23601562 4.90054687 -17.10484375 4.94953125 -18 5 C-18 4.67 -18 4.34 -18 4 C-16.35 3.67 -14.7 3.34 -13 3 C-13.33 2.34 -13.66 1.68 -14 1 C-8.89147286 -0.77234615 -5.41336882 -1.29920852 0 0 Z " fill="#482E14" transform="translate(268,390)"/>
<path d="M0 0 C3.35595828 0.59927826 5.37801226 1.84622436 8 4 C7.67 4.66 7.34 5.32 7 6 C8.65 6.33 10.3 6.66 12 7 C12.33 8.32 12.66 9.64 13 11 C8.545 11.495 8.545 11.495 4 12 C4.66 11.67 5.32 11.34 6 11 C6 9.68 6 8.36 6 7 C4.09232751 5.28309476 2.28980473 4.14490236 0 3 C0 2.01 0 1.02 0 0 Z " fill="#7C4714" transform="translate(260,376)"/>
<path d="M0 0 C1.46067199 0.45082469 2.91848032 0.91093537 4.375 1.375 C5.18710938 1.63023437 5.99921875 1.88546875 6.8359375 2.1484375 C9 3 9 3 11 5 C10.67 5.33 10.34 5.66 10 6 C11.32 6.99 12.64 7.98 14 9 C11.25328618 8.52913477 8.89225925 7.95489922 6.3125 6.875 C5.549375 6.58625 4.78625 6.2975 4 6 C3.01 6.495 3.01 6.495 2 7 C0.4375 5.75 0.4375 5.75 -1 4 C-0.58984375 1.890625 -0.58984375 1.890625 0 0 Z " fill="#927B42" transform="translate(171,361)"/>
<path d="M0 0 C5.75 1.75 5.75 1.75 8 4 C8 4.66 8 5.32 8 6 C4.535 7.485 4.535 7.485 1 9 C0.01 8.01 -0.98 7.02 -2 6 C-1.34 4.02 -0.68 2.04 0 0 Z " fill="#7B5E2F" transform="translate(151,337)"/>
<path d="M0 0 C6.875 1.875 6.875 1.875 8 3 C8 2.34 8 1.68 8 1 C9.32 1 10.64 1 12 1 C13.125 5.75 13.125 5.75 12 8 C3.17647059 6.23529412 3.17647059 6.23529412 0 2 C0 1.34 0 0.68 0 0 Z " fill="#6B5B34" transform="translate(159,359)"/>
<path d="M0 0 C5.09857034 0.85162933 7.72235651 4.2394187 11 8 C12.9375 10.9375 12.9375 10.9375 14 13 C11 13 11 13 8.30078125 10.6640625 C7.29685338 9.65880492 6.3010225 8.64541032 5.3125 7.625 C4.80138672 7.11710937 4.29027344 6.60921875 3.76367188 6.0859375 C0 2.26699141 0 2.26699141 0 0 Z " fill="#C19A4C" transform="translate(143,347)"/>
<path d="M0 0 C0.66 0 1.32 0 2 0 C2 2.97 2 5.94 2 9 C1.34 9 0.68 9 0 9 C0 8.01 0 7.02 0 6 C-3.3 6 -6.6 6 -10 6 C-10 5.01 -10 4.02 -10 3 C-6.7 3 -3.4 3 0 3 C0 2.01 0 1.02 0 0 Z " fill="#C3A656" transform="translate(378,251)"/>
<path d="M0 0 C2.0625 0.4375 2.0625 0.4375 4 1 C4.66 3.31 5.32 5.62 6 8 C5.34 8.66 4.68 9.32 4 10 C1.875 9.625 1.875 9.625 0 9 C0.99 9 1.98 9 3 9 C2.67 7.68 2.34 6.36 2 5 C1.67 5.66 1.34 6.32 1 7 C0.01 6.67 -0.98 6.34 -2 6 C-1.125 1.125 -1.125 1.125 0 0 Z " fill="#403823" transform="translate(369,227)"/>
<path d="M0 0 C4.571279 0.54855348 8.67435795 1.41744803 13 3 C13 4.32 13 5.64 13 7 C14.423125 7.185625 14.423125 7.185625 15.875 7.375 C19 8 19 8 21 10 C15.88634986 8.9318153 10.92772031 7.76892524 6 6 C6.99 5.34 7.98 4.68 9 4 C6.03 3.01 3.06 2.02 0 1 C0 0.67 0 0.34 0 0 Z " fill="#73592D" transform="translate(197,365)"/>
<path d="M0 0 C0.33 0.66 0.66 1.32 1 2 C1.66 2.33 2.32 2.66 3 3 C4.0194119 3.98020375 5.02246356 4.97803008 6 6 C5.030625 6.61875 4.06125 7.2375 3.0625 7.875 C-0.02835362 9.65678846 -0.02835362 9.65678846 -1 12 C-2.32 11.67 -3.64 11.34 -5 11 C-4.34 11 -3.68 11 -3 11 C-2.67 10.01 -2.34 9.02 -2 8 C-1.34 7.67 -0.68 7.34 0 7 C-0.66 5.35 -1.32 3.7 -2 2 C-1.34 2 -0.68 2 0 2 C0 1.34 0 0.68 0 0 Z " fill="#5F3A15" transform="translate(262,378)"/>
<path d="M0 0 C3.39556128 1.46176629 5.56484963 3.35223992 8.125 6 C8.80820313 6.70125 9.49140625 7.4025 10.1953125 8.125 C10.79085937 8.74375 11.38640625 9.3625 12 10 C12.66 10.66 13.32 11.32 14 12 C10.29683862 12 9.32738549 11.04537693 6.4375 8.8125 C5.65246094 8.22082031 4.86742187 7.62914062 4.05859375 7.01953125 C1.79754233 4.80138403 0.95564417 2.99090796 0 0 Z " fill="#B4843A" transform="translate(137,333)"/>
<path d="M0 0 C0.66 0.33 1.32 0.66 2 1 C2 1.99 2 2.98 2 4 C-0.8125 5.5625 -0.8125 5.5625 -4 7 C-4.99 6.67 -5.98 6.34 -7 6 C-7.6875 3.9375 -7.6875 3.9375 -8 2 C-5.92446352 1.4465236 -4.15634036 1 -2 1 C-1.34 0.67 -0.68 0.34 0 0 Z " fill="#814B16" transform="translate(260,382)"/>
<path d="M0 0 C0.66 0.33 1.32 0.66 2 1 C-4.08194628 5.27499123 -10.27746528 8.82819865 -17 12 C-17.33 11.01 -17.66 10.02 -18 9 C-17.443125 8.75765625 -16.88625 8.5153125 -16.3125 8.265625 C-7.58944907 4.98481247 -7.58944907 4.98481247 0 0 Z " fill="#AB6F28" transform="translate(334,373)"/>
<path d="M0 0 C4.28904235 1.5885342 6.32345526 4.43127368 9 8 C9 8.66 9 9.32 9 10 C8.01 10.33 7.02 10.66 6 11 C4.10646634 9.10646634 2.5801368 7.15473199 1 5 C1.33 4.67 1.66 4.34 2 4 C1.34 3.34 0.68 2.68 0 2 C0 1.34 0 0.68 0 0 Z " fill="#704D21" transform="translate(247,365)"/>
<path d="M0 0 C6.46712188 1.16194152 12.09622349 3.1248748 18 6 C18 6.66 18 7.32 18 8 C12 6 6 4 0 2 C0 1.34 0 0.68 0 0 Z " fill="#1E1B15" transform="translate(206,352)"/>
<path d="M0 0 C-1.38274717 3.34163899 -2.79044009 5.25766748 -6 7 C-8.75 6.6875 -8.75 6.6875 -11 6 C-11 4.68 -11 3.36 -11 2 C-10.2575 2.226875 -9.515 2.45375 -8.75 2.6875 C-5.95202843 3.30258426 -5.95202843 3.30258426 -3.8125 1.5625 C-2 0 -2 0 0 0 Z " fill="#DBB95F" transform="translate(355,183)"/>
<path d="M0 0 C1.258125 0.12375 2.51625 0.2475 3.8125 0.375 C4.87404297 0.47941406 4.87404297 0.47941406 5.95703125 0.5859375 C8 1 8 1 11 3 C9.68 3 8.36 3 7 3 C7 3.66 7 4.32 7 5 C11.455 5.99 11.455 5.99 16 7 C11.87585243 8.03103689 11.0158858 7.94701684 7.25 6.5625 C6.45078125 6.27503906 5.6515625 5.98757813 4.828125 5.69140625 C3.92320312 5.34916016 3.92320312 5.34916016 3 5 C3 4.01 3 3.02 3 2 C2.01 1.34 1.02 0.68 0 0 Z " fill="#604F2C" transform="translate(195,358)"/>
<path d="M0 0 C4.04704664 0.86722428 7.04798117 2.04798117 10 5 C10.99 5.66 11.98 6.32 13 7 C10.525 8.485 10.525 8.485 8 10 C6.85157077 8.71064081 5.70633773 7.41843421 4.5625 6.125 C3.92441406 5.40570313 3.28632813 4.68640625 2.62890625 3.9453125 C1 2 1 2 0 0 Z " fill="#AC8843" transform="translate(146,347)"/>
<path d="M0 0 C2.5 2.25 2.5 2.25 5 5 C5 6.32 5 7.64 5 9 C4.34 9 3.68 9 3 9 C2.67 10.32 2.34 11.64 2 13 C1.34 13 0.68 13 0 13 C0 8.71 0 4.42 0 0 Z " fill="#B79C51" transform="translate(197,137)"/>
<path d="M0 0 C3.37462715 0.54723683 5.08235 1.0549 8 3 C8 3.66 8 4.32 8 5 C9.32 5.66 10.64 6.32 12 7 C10.35 7.33 8.7 7.66 7 8 C7 7.01 7 6.02 7 5 C4.69 4.34 2.38 3.68 0 3 C0 2.01 0 1.02 0 0 Z " fill="#4B381D" transform="translate(218,373)"/>
<path d="M0 0 C0 0.66 0 1.32 0 2 C1.98 2 3.96 2 6 2 C6 2.33 6 2.66 6 3 C5.07767578 3.09087891 5.07767578 3.09087891 4.13671875 3.18359375 C3.32847656 3.26738281 2.52023438 3.35117187 1.6875 3.4375 C0.88699219 3.51871094 0.08648437 3.59992188 -0.73828125 3.68359375 C-3.16087179 3.95265693 -3.16087179 3.95265693 -6 5 C-6.99 4.34 -7.98 3.68 -9 3 C-9 2.34 -9 1.68 -9 1 C-5.92677456 0.08941469 -3.19902639 -0.08886184 0 0 Z " fill="#2F281B" transform="translate(171,340)"/>
<path d="M0 0 C0.9075 0.391875 1.815 0.78375 2.75 1.1875 C2.75 1.8475 2.75 2.5075 2.75 3.1875 C3.41 3.8475 4.07 4.5075 4.75 5.1875 C2.375 5.8125 2.375 5.8125 -0.25 6.1875 C-0.91 5.5275 -1.57 4.8675 -2.25 4.1875 C-3.24 4.1875 -4.23 4.1875 -5.25 4.1875 C-5.91 3.5275 -6.57 2.8675 -7.25 2.1875 C-4.52596974 -0.53653026 -3.86366821 -0.96591705 0 0 Z " fill="#7B4F1D" transform="translate(246.25,378.8125)"/>
<path d="M0 0 C2.31 1.65 4.62 3.3 7 5 C6 6 5 7 4 8 C3.67 8.66 3.34 9.32 3 10 C1.35 10 -0.3 10 -2 10 C-1.34 8.35 -0.68 6.7 0 5 C0.66 5 1.32 5 2 5 C1.34 3.35 0.68 1.7 0 0 Z " fill="#543919" transform="translate(254,370)"/>
<path d="M0 0 C0.66 0 1.32 0 2 0 C2.042721 1.66611905 2.04063832 3.33382885 2 5 C1 6 1 6 -1.9375 6.1875 C-5 6 -5 6 -7 4 C-7 3.01 -7 2.02 -7 1 C-5 2 -3 3 -1 4 C-0.67 2.68 -0.34 1.36 0 0 Z " fill="#DAB95F" transform="translate(276,137)"/>
<path d="M0 0 C4.23169259 0.37615045 6.8083482 1.17661571 10 4 C6.92677456 4.91058531 4.19902639 5.08886184 1 5 C0.34 3.68 -0.32 2.36 -1 1 C-0.67 0.67 -0.34 0.34 0 0 Z " fill="#786033" transform="translate(156,346)"/>
<path d="M0 0 C5.24972347 4.10037573 9.20962911 8.52964787 13 14 C9.39438086 12.4700928 7.0140801 10.31303068 4.25 7.5625 C3.45078125 6.78003906 2.6515625 5.99757813 1.828125 5.19140625 C0 3 0 3 0 0 Z " fill="#9E7232" transform="translate(137,329)"/>
<path d="M0 0 C0.66 0 1.32 0 2 0 C2 2.31 2 4.62 2 7 C4.97 7.495 4.97 7.495 8 8 C7.67 8.99 7.34 9.98 7 11 C1.125 9.125 1.125 9.125 0 8 C-0.14115161 5.32941149 -0.04247107 2.67567762 0 0 Z " fill="#E4C163" transform="translate(177,147)"/>
<path d="M0 0 C4.8274799 1.41292095 8.7162359 3.42974154 13 6 C12.01 6.66 11.02 7.32 10 8 C6.8125 7.125 6.8125 7.125 4 6 C4.33 5.34 4.66 4.68 5 4 C4.175 3.525625 3.35 3.05125 2.5 2.5625 C1.675 2.046875 0.85 1.53125 0 1 C0 0.67 0 0.34 0 0 Z " fill="#352817" transform="translate(231,373)"/>
<path d="M0 0 C0.556875 0.309375 1.11375 0.61875 1.6875 0.9375 C4.12540433 2.05761821 6.36224186 2.56037364 9 3 C7.66666667 5.66666667 6.33333333 8.33333333 5 11 C4.731875 10.071875 4.46375 9.14375 4.1875 8.1875 C3.06289965 5.1688359 2.29293427 4.0844857 0 2 C0 1.34 0 0.68 0 0 Z " fill="#6F5228" transform="translate(144,329)"/>
<path d="M0 0 C2.53910197 0.38520564 3.72751123 0.70097943 5.484375 2.62890625 C5.90203125 3.26699219 6.3196875 3.90507812 6.75 4.5625 C7.17796875 5.20316406 7.6059375 5.84382813 8.046875 6.50390625 C8.36140625 6.99761719 8.6759375 7.49132812 9 8 C5.8614943 7.25561083 2.97990339 6.24162641 0 5 C0 3.35 0 1.7 0 0 Z " fill="#925D21" transform="translate(131,313)"/>
<path d="M0 0 C2.0625 0.4375 2.0625 0.4375 4 1 C2.82744291 4.33727786 1.81131596 6.77437487 -1 9 C-1.66 9 -2.32 9 -3 9 C-3 8.01 -3 7.02 -3 6 C-2.34 6 -1.68 6 -1 6 C-1.0309375 4.7934375 -1.0309375 4.7934375 -1.0625 3.5625 C-1 1 -1 1 0 0 Z " fill="#BEA154" transform="translate(361,204)"/>
<path d="M0 0 C5.75 -0.125 5.75 -0.125 8 1 C8 1.66 8 2.32 8 3 C10.31 3.66 12.62 4.32 15 5 C14.67 5.66 14.34 6.32 14 7 C9.38 5.02 4.76 3.04 0 1 C0 0.67 0 0.34 0 0 Z " fill="#39311F" transform="translate(179,366)"/>
<path d="M0 0 C2.02045442 0.60183749 4.02111039 1.27306096 6 2 C6.33 2.66 6.66 3.32 7 4 C5.68 3.67 4.36 3.34 3 3 C3.99 4.32 4.98 5.64 6 7 C2.08788267 5.84414715 -0.8745041 4.64465038 -4 2 C-2.68 2 -1.36 2 0 2 C0 1.34 0 0.68 0 0 Z " fill="#756135" transform="translate(219,345)"/>
<path d="M0 0 C3.3 0.99 6.6 1.98 10 3 C10 3.66 10 4.32 10 5 C2.25 4.125 2.25 4.125 0 3 C0 2.01 0 1.02 0 0 Z " fill="#48341B" transform="translate(204,388)"/>
<path d="M0 0 C0.99 0.33 1.98 0.66 3 1 C3.875 2.875 3.875 2.875 4 5 C2.5625 6.75 2.5625 6.75 1 8 C-0.32 7.34 -1.64 6.68 -3 6 C-2.01 4.02 -1.02 2.04 0 0 Z " fill="#6F4C21" transform="translate(242,370)"/>
<path d="M0 0 C4.75 0.75 4.75 0.75 7 3 C6.34 3 5.68 3 5 3 C5 3.66 5 4.32 5 5 C6.32 5.66 7.64 6.32 9 7 C4.61110675 6.33501617 1.0188515 4.81242323 -3 3 C0 2 0 2 2 2 C1.34 1.34 0.68 0.68 0 0 Z " fill="#674C26" transform="translate(219,369)"/>
<path d="M0 0 C0 0.66 0 1.32 0 2 C-1.43836751 1.88541307 -2.87570966 1.75790884 -4.3125 1.625 C-5.11300781 1.55539062 -5.91351563 1.48578125 -6.73828125 1.4140625 C-9 1 -9 1 -12 -1 C-7.84708071 -2.43754898 -3.91862041 -1.95931021 0 0 Z " fill="#3A301E" transform="translate(218,362)"/>
<path d="M0 0 C4.455 0.99 4.455 0.99 9 2 C9.33 3.32 9.66 4.64 10 6 C6.51329166 4.8905928 3.22515763 3.73662334 0 2 C0 1.34 0 0.68 0 0 Z " fill="#2D281B" transform="translate(215,341)"/>
<path d="M0 0 C1.32 1.32 2.64 2.64 4 4 C3.34 5.98 2.68 7.96 2 10 C0.68 8.35 -0.64 6.7 -2 5 C-1.34 3.35 -0.68 1.7 0 0 Z " fill="#AB661D" transform="translate(129,308)"/>
<path d="M0 0 C0.78375 0.185625 1.5675 0.37125 2.375 0.5625 C4.97089775 1.25962266 4.97089775 1.25962266 7 0 C9.03144641 0.93446535 11.03533587 1.93224776 13 3 C11.375 4.125 11.375 4.125 9 5 C5.12990885 4.13120403 2.53341263 3.09639322 0 0 Z " fill="#977439" transform="translate(179,378)"/>
<path d="M0 0 C3.77545388 1.09068668 6.47043472 1.9083091 9 5 C8.01 5.495 8.01 5.495 7 6 C6.01 5.67 5.02 5.34 4 5 C3.67 5.66 3.34 6.32 3 7 C0 2.25 0 2.25 0 0 Z " fill="#E5C263" transform="translate(368,274)"/>
<path d="M0 0 C4.75 0.875 4.75 0.875 7 2 C7 1.34 7 0.68 7 0 C9.475 0.99 9.475 0.99 12 2 C10 4 10 4 8 5 C6.0546875 4.22265625 6.0546875 4.22265625 3.875 3.0625 C3.15054688 2.68222656 2.42609375 2.30195313 1.6796875 1.91015625 C1.12539062 1.60980469 0.57109375 1.30945313 0 1 C0 0.67 0 0.34 0 0 Z " fill="#72592E" transform="translate(217,358)"/>
<path d="M0 0 C3.81684226 1.55500981 6.19195732 4.03595495 9 7 C8.67 7.99 8.34 8.98 8 10 C3.92236229 7.13463296 1.97322935 4.56958375 0 0 Z " fill="#5B4A29" transform="translate(228,347)"/>
<path d="M0 0 C3.63 0.33 7.26 0.66 11 1 C11 1.99 11 2.98 11 4 C4.375 4.25 4.375 4.25 1 2 C0.67 1.34 0.34 0.68 0 0 Z " fill="#755A2D" transform="translate(158,333)"/>
<path d="M0 0 C0.721875 0.103125 1.44375 0.20625 2.1875 0.3125 C1.8575 0.9725 1.5275 1.6325 1.1875 2.3125 C0.1975 2.3125 -0.7925 2.3125 -1.8125 2.3125 C-1.8125 2.9725 -1.8125 3.6325 -1.8125 4.3125 C-2.8025 4.3125 -3.7925 4.3125 -4.8125 4.3125 C-4.8125 4.9725 -4.8125 5.6325 -4.8125 6.3125 C-5.8025 5.9825 -6.7925 5.6525 -7.8125 5.3125 C-3.50480769 0.38942308 -3.50480769 0.38942308 0 0 Z " fill="#DFBD61" transform="translate(319.8125,153.6875)"/>
<path d="M0 0 C5.75 -0.125 5.75 -0.125 8 1 C8 1.66 8 2.32 8 3 C8.66 3.33 9.32 3.66 10 4 C9.01 4.495 9.01 4.495 8 5 C6.0546875 4.22265625 6.0546875 4.22265625 3.875 3.0625 C3.15054688 2.68222656 2.42609375 2.30195313 1.6796875 1.91015625 C1.12539062 1.60980469 0.57109375 1.30945313 0 1 C0 0.67 0 0.34 0 0 Z " fill="#42341E" transform="translate(189,379)"/>
<path d="M0 0 C1.60517097 0.08733576 3.20921662 0.19552224 4.8125 0.3125 C6.15248047 0.39951172 6.15248047 0.39951172 7.51953125 0.48828125 C10.30604 1.06313581 11.24135754 1.8206856 13 4 C10.31143576 5.00821159 8.58296785 5.22736824 5.88671875 4.17578125 C3.89205069 3.16604698 1.9353228 2.11893353 0 1 C0 0.67 0 0.34 0 0 Z " fill="#755629" transform="translate(222,367)"/>
<path d="M0 0 C5.66153846 1.47692308 5.66153846 1.47692308 7.375 4.125 C7.684375 5.053125 7.684375 5.053125 8 6 C7.01 6.33 6.02 6.66 5 7 C3.29115995 5.37660195 1.62553283 3.70680947 0 2 C0 1.34 0 0.68 0 0 Z " fill="#957439" transform="translate(147,344)"/>
<path d="M0 0 C0.33 0.66 0.66 1.32 1 2 C-2.47325181 3.1577506 -5.36067448 3.06866652 -9 3 C-8.67 2.01 -8.34 1.02 -8 0 C-5.08447442 -1.20642438 -2.93446575 -1.11307322 0 0 Z " fill="#814913" transform="translate(257,391)"/>
<path d="M0 0 C3.68754757 0.49831724 5.60490662 1.10067643 8 4 C6.25 4.6875 6.25 4.6875 4 5 C1.75 3.6875 1.75 3.6875 0 2 C0 1.34 0 0.68 0 0 Z " fill="#927941" transform="translate(167,369)"/>
<path d="M0 0 C6.52307692 1.47692308 6.52307692 1.47692308 8.9375 4.125 C9.288125 4.74375 9.63875 5.3625 10 6 C6.05879291 5.43697042 3.2491277 4.3208055 0 2 C0 1.34 0 0.68 0 0 Z " fill="#756337" transform="translate(166,365)"/>
<path d="M0 0 C8.57142857 -0.28571429 8.57142857 -0.28571429 12 2 C12 2.33 12 2.66 12 3 C10.37419034 2.88601335 8.74932843 2.75844341 7.125 2.625 C6.22007812 2.55539062 5.31515625 2.48578125 4.3828125 2.4140625 C2 2 2 2 0 0 Z " fill="#1F1C16" transform="translate(190,349)"/>
<path d="M0 0 C0.66 0 1.32 0 2 0 C2 2.97 2 5.94 2 9 C1.34 9 0.68 9 0 9 C0 7.68 0 6.36 0 5 C-1.32 4.67 -2.64 4.34 -4 4 C-2.68 4 -1.36 4 0 4 C0 2.68 0 1.36 0 0 Z " fill="#F7D16A" transform="translate(378,251)"/>
<path d="M0 0 C0.99 0.33 1.98 0.66 3 1 C3 2.65 3 4.3 3 6 C1.35 5.67 -0.3 5.34 -2 5 C-1.34 3.35 -0.68 1.7 0 0 Z " fill="#907B42" transform="translate(368,303)"/>
<path d="M0 0 C1.10844919 3.32534757 0.84454356 5.62182575 0 9 C-0.12375 8.071875 -0.12375 8.071875 -0.25 7.125 C-0.81258459 4.81562433 -0.81258459 4.81562433 -3.0625 3.75 C-3.701875 3.5025 -4.34125 3.255 -5 3 C-4.01 3 -3.02 3 -2 3 C-2 2.34 -2 1.68 -2 1 C-1.34 0.67 -0.68 0.34 0 0 Z " fill="#A38A49" transform="translate(320,155)"/>
<path d="M0 0 C-3.63423209 2.32590854 -6.77088331 2.16265833 -11 2 C-11 1.34 -11 0.68 -11 0 C-7.01803543 -1.05404945 -4.01804691 -0.84098656 0 0 Z " fill="#965617" transform="translate(279,387)"/>
<path d="M0 0 C-0.33 0.33 -0.66 0.66 -1 1 C-0.34 1.66 0.32 2.32 1 3 C-2.82097239 2.46930939 -5.06171403 1.50298434 -8 -1 C-4.59745511 -2.2151946 -3.06748874 -1.86240388 0 0 Z " fill="#745022" transform="translate(238,378)"/>
<path d="M0 0 C3.35595828 0.59927826 5.37801226 1.84622436 8 4 C4.71023192 5.09658936 3.28696233 4.79953138 0 4 C0 2.68 0 1.36 0 0 Z " fill="#865119" transform="translate(260,376)"/>
<path d="M0 0 C4.75 0.75 4.75 0.75 7 3 C6.625 5.125 6.625 5.125 6 7 C5.01 6.67 4.02 6.34 3 6 C3 4.68 3 3.36 3 2 C2.01 1.67 1.02 1.34 0 1 C0 0.67 0 0.34 0 0 Z " fill="#977F44" transform="translate(162,357)"/>
<path d="M0 0 C2.31 0 4.62 0 7 0 C7 0.99 7 1.98 7 3 C5.68 3.33 4.36 3.66 3 4 C3 3.34 3 2.68 3 2 C2.01 2 1.02 2 0 2 C0 1.34 0 0.68 0 0 Z " fill="#AA914C" transform="translate(372,279)"/>
<path d="M0 0 C0.66 0.33 1.32 0.66 2 1 C2 3 2 3 0.25 5.1875 C-0.4925 5.785625 -1.235 6.38375 -2 7 C-4.25 6.75 -4.25 6.75 -6 6 C-5.34 6 -4.68 6 -4 6 C-3.67 5.01 -3.34 4.02 -3 3 C-1.4375 1.3125 -1.4375 1.3125 0 0 Z " fill="#6D3F13" transform="translate(263,383)"/>
<path d="M0 0 C2.475 0.99 2.475 0.99 5 2 C3 4 3 4 1 5 C-0.32 4.01 -1.64 3.02 -3 2 C-2.01 2 -1.02 2 0 2 C0 1.34 0 0.68 0 0 Z " fill="#745D31" transform="translate(221,353)"/>
<path d="M0 0 C2.64 0.33 5.28 0.66 8 1 C7.67 1.99 7.34 2.98 7 4 C4.69 3.34 2.38 2.68 0 2 C0 1.34 0 0.68 0 0 Z " fill="#463B24" transform="translate(170,349)"/>
<path d="M0 0 C0.33 0.66 0.66 1.32 1 2 C1.66 2.33 2.32 2.66 3 3 C-1.455 3.495 -1.455 3.495 -6 4 C-6 3.01 -6 2.02 -6 1 C-4.02 0.67 -2.04 0.34 0 0 Z " fill="#463B23" transform="translate(166,349)"/>
<path d="M0 0 C1.875 0.125 1.875 0.125 4 1 C5.25 4.0625 5.25 4.0625 6 7 C3.95880212 5.38405168 1.95927063 3.7143618 0 2 C0 1.34 0 0.68 0 0 Z " fill="#CF9F4B" transform="translate(143,347)"/>
<path d="M0 0 C1.70884005 1.62339805 3.37446717 3.29319053 5 5 C5 5.66 5 6.32 5 7 C3.0625 6.3125 3.0625 6.3125 1 5 C0.25 2.375 0.25 2.375 0 0 Z " fill="#AF7229" transform="translate(132,320)"/>
<path d="M0 0 C-0.75 1.9375 -0.75 1.9375 -2 4 C-4.125 4.75 -4.125 4.75 -6 5 C-3.74193548 0 -3.74193548 0 0 0 Z " fill="#E5C263" transform="translate(355,183)"/>
</svg>
