<?xml version="1.0" encoding="UTF-8"?>
<!DOCTYPE svg PUBLIC "-//W3C//DTD SVG 1.1//EN" "http://www.w3.org/Graphics/SVG/1.1/DTD/svg11.dtd">
<svg xmlns="http://www.w3.org/2000/svg" version="1.1" width="512px" height="340px" style="shape-rendering:geometricPrecision; text-rendering:geometricPrecision; image-rendering:optimizeQuality; fill-rule:evenodd; clip-rule:evenodd" xmlns:xlink="http://www.w3.org/1999/xlink">
<g><path style="opacity:1" fill="#161513" d="M -0.5,-0.5 C 170.167,-0.5 340.833,-0.5 511.5,-0.5C 511.5,112.833 511.5,226.167 511.5,339.5C 340.833,339.5 170.167,339.5 -0.5,339.5C -0.5,226.167 -0.5,112.833 -0.5,-0.5 Z"/></g>
<g><path style="opacity:1" fill="#89703d" d="M 242.5,25.5 C 258.741,23.6743 274.741,25.0076 290.5,29.5C 276.94,27.1398 263.274,26.1398 249.5,26.5C 247.393,25.5318 245.059,25.1984 242.5,25.5 Z"/></g>
<g><path style="opacity:1" fill="#232019" d="M 249.5,26.5 C 263.274,26.1398 276.94,27.1398 290.5,29.5C 296.482,32.2702 302.816,34.2702 309.5,35.5C 310.85,36.6499 310.684,37.3166 309,37.5C 306.209,36.5938 303.376,35.9272 300.5,35.5C 291.847,32.423 282.847,30.423 273.5,29.5C 261.964,27.8965 250.631,28.2299 239.5,30.5C 229.514,31.0809 219.847,33.0809 210.5,36.5C 194.07,41.956 179.07,49.956 165.5,60.5C 153.087,69.5789 142.753,80.5789 134.5,93.5C 133.167,94.8333 131.833,96.1667 130.5,97.5C 138.235,83.0888 148.569,70.7555 161.5,60.5C 174.243,50.1257 188.243,41.7924 203.5,35.5C 218.377,30.1914 233.71,27.1914 249.5,26.5 Z"/></g>
<g><path style="opacity:1" fill="#c3b884" d="M 242.5,25.5 C 245.059,25.1984 247.393,25.5318 249.5,26.5C 233.71,27.1914 218.377,30.1914 203.5,35.5C 202.833,35.5 202.5,35.1667 202.5,34.5C 215.237,28.9832 228.57,25.9832 242.5,25.5 Z"/></g>
<g><path style="opacity:1" fill="#b19b62" d="M 273.5,29.5 C 265.343,30.3294 257.01,30.8294 248.5,31C 257.885,31.0523 264.552,31.5523 268.5,32.5C 258.437,32.4206 248.437,33.0872 238.5,34.5C 238.5,33.5 238.5,32.5 238.5,31.5C 244.167,31.3364 244.5,31.0031 239.5,30.5C 250.631,28.2299 261.964,27.8965 273.5,29.5 Z"/></g>
<g><path style="opacity:1" fill="#765c2d" d="M 290.5,29.5 C 297.345,30.3395 303.679,32.3395 309.5,35.5C 302.816,34.2702 296.482,32.2702 290.5,29.5 Z"/></g>
<g><path style="opacity:1" fill="#5d4c2a" d="M 273.5,29.5 C 282.847,30.423 291.847,32.423 300.5,35.5C 298.901,35.2322 297.568,35.5655 296.5,36.5C 287.05,35.0021 277.716,33.6688 268.5,32.5C 264.552,31.5523 257.885,31.0523 248.5,31C 257.01,30.8294 265.343,30.3294 273.5,29.5 Z"/></g>
<g><path style="opacity:1" fill="#dbcf92" d="M 239.5,30.5 C 244.5,31.0031 244.167,31.3364 238.5,31.5C 238.5,32.5 238.5,33.5 238.5,34.5C 230.423,36.186 222.423,38.186 214.5,40.5C 212.076,40.8076 209.743,40.4742 207.5,39.5C 208.77,38.7124 209.77,37.7124 210.5,36.5C 219.847,33.0809 229.514,31.0809 239.5,30.5 Z"/></g>
<g><path style="opacity:1" fill="#3c311d" d="M 300.5,35.5 C 303.376,35.9272 306.209,36.5938 309,37.5C 310.684,37.3166 310.85,36.6499 309.5,35.5C 333.951,44.108 354.451,58.4414 371,78.5C 371.688,79.3317 371.521,79.9984 370.5,80.5C 355.708,64.5304 338.541,51.8637 319,42.5C 318.439,43.0219 317.772,43.3552 317,43.5C 310.132,40.9177 303.298,38.5844 296.5,36.5C 297.568,35.5655 298.901,35.2322 300.5,35.5 Z"/></g>
<g><path style="opacity:1" fill="#ab9354" d="M 202.5,34.5 C 202.5,35.1667 202.833,35.5 203.5,35.5C 188.243,41.7924 174.243,50.1257 161.5,60.5C 160.662,60.1583 160.328,59.4916 160.5,58.5C 173.27,48.4078 187.27,40.4078 202.5,34.5 Z"/></g>
<g><path style="opacity:1" fill="#bca25b" d="M 210.5,36.5 C 209.77,37.7124 208.77,38.7124 207.5,39.5C 209.743,40.4742 212.076,40.8076 214.5,40.5C 198.697,46.7376 184.03,55.0709 170.5,65.5C 169.167,65.5 167.833,65.5 166.5,65.5C 166.371,63.7839 166.038,62.1172 165.5,60.5C 179.07,49.956 194.07,41.956 210.5,36.5 Z"/></g>
<g><path style="opacity:1" fill="#8d6e34" d="M 160.5,58.5 C 160.328,59.4916 160.662,60.1583 161.5,60.5C 148.569,70.7555 138.235,83.0888 130.5,97.5C 128.336,102.5 125.669,107.167 122.5,111.5C 123.494,109.666 123.494,107.999 122.5,106.5C 131.869,87.8076 144.536,71.8076 160.5,58.5 Z"/></g>
<g><path style="opacity:1" fill="#9b742e" d="M 165.5,60.5 C 166.038,62.1172 166.371,63.7839 166.5,65.5C 167.833,65.5 169.167,65.5 170.5,65.5C 159.484,75.1833 149.484,85.8499 140.5,97.5C 139.258,95.7499 137.758,94.0832 136,92.5C 135.617,93.056 135.117,93.3893 134.5,93.5C 142.753,80.5789 153.087,69.5789 165.5,60.5 Z"/></g>
<g><path style="opacity:1" fill="#bba05c" d="M 140.5,97.5 C 135.598,105.311 131.265,113.311 127.5,121.5C 126.86,117.553 125.193,114.219 122.5,111.5C 125.669,107.167 128.336,102.5 130.5,97.5C 131.833,96.1667 133.167,94.8333 134.5,93.5C 135.117,93.3893 135.617,93.056 136,92.5C 137.758,94.0832 139.258,95.7499 140.5,97.5 Z"/></g>
<g><path style="opacity:1" fill="#d1c388" d="M 122.5,106.5 C 123.494,107.999 123.494,109.666 122.5,111.5C 125.193,114.219 126.86,117.553 127.5,121.5C 125.131,128.936 122.798,136.269 120.5,143.5C 120.703,141.61 120.037,140.11 118.5,139C 119.624,138.161 120.291,136.994 120.5,135.5C 120.003,133.182 119.67,130.848 119.5,128.5C 116.812,128.166 114.479,128.832 112.5,130.5C 114.886,121.984 118.219,113.984 122.5,106.5 Z"/></g>
<g><path style="opacity:1" fill="#f0e9ae" d="M 120.5,143.5 C 120.5,144.167 120.5,144.833 120.5,145.5C 118.176,148.159 115.176,149.492 111.5,149.5C 110.841,146.545 110.508,143.545 110.5,140.5C 110.851,137.097 111.518,133.763 112.5,130.5C 114.479,128.832 116.812,128.166 119.5,128.5C 119.67,130.848 120.003,133.182 120.5,135.5C 120.291,136.994 119.624,138.161 118.5,139C 120.037,140.11 120.703,141.61 120.5,143.5 Z"/></g>
<g><path style="opacity:1" fill="#d4c381" d="M 110.5,140.5 C 110.508,143.545 110.841,146.545 111.5,149.5C 115.176,149.492 118.176,148.159 120.5,145.5C 119.448,149.426 118.782,153.426 118.5,157.5C 113.341,159.321 110.008,157.654 108.5,152.5C 108.198,148.21 108.864,144.21 110.5,140.5 Z"/></g>
<g><path style="opacity:1" fill="#ccaa5d" d="M 408.5,111.5 C 410.344,112.204 410.844,113.537 410,115.5C 396.788,134.925 385.954,155.592 377.5,177.5C 378.002,178.521 378.668,178.688 379.5,178C 384.167,173.333 388.833,168.667 393.5,164C 396.714,161.556 399.048,162.056 400.5,165.5C 399.685,170.113 398.185,174.446 396,178.5C 395.503,180.81 395.337,183.143 395.5,185.5C 400.05,186.116 404.05,184.949 407.5,182C 413.409,174.847 419.075,167.514 424.5,160C 428.388,157.777 431.888,158.277 435,161.5C 436.87,159.781 439.037,158.781 441.5,158.5C 439.97,165.57 437.303,172.236 433.5,178.5C 434,178.833 434.5,179.167 435,179.5C 441.256,175.952 447.09,171.786 452.5,167C 453.5,166.333 454.5,166.333 455.5,167C 449.44,173.731 442.273,178.898 434,182.5C 433.228,182.355 432.561,182.022 432,181.5C 432.237,174.347 434.737,168.013 439.5,162.5C 438.132,161.406 436.965,161.74 436,163.5C 435.51,164.793 435.343,166.127 435.5,167.5C 434.448,167.351 433.448,167.517 432.5,168C 429.167,171.667 425.833,175.333 422.5,179C 419.662,181.12 416.996,180.953 414.5,178.5C 409.053,184.395 402.386,187.228 394.5,187C 394,186.5 393.5,186 393,185.5C 391.778,178.884 392.945,172.718 396.5,167C 396.167,166.5 395.833,166 395.5,165.5C 390.015,170.485 384.681,175.652 379.5,181C 377.866,181.494 376.199,181.66 374.5,181.5C 374.207,177.563 374.54,173.73 375.5,170C 365.42,169.946 359.254,174.779 357,184.5C 354.631,187.933 351.465,190.266 347.5,191.5C 343.853,190.514 342.686,188.181 344,184.5C 344.785,182.714 345.951,181.214 347.5,180C 350.418,178.291 353.252,176.458 356,174.5C 356.601,173.035 356.101,172.035 354.5,171.5C 343.933,182.8 331.266,186.133 316.5,181.5C 315.914,181.709 315.414,182.043 315,182.5C 313.056,188.165 311.222,193.832 309.5,199.5C 307.365,199.853 306.032,199.02 305.5,197C 308.102,190.526 310.269,184.026 312,177.5C 307.531,183.487 301.697,186.32 294.5,186C 293.903,184.938 293.57,183.772 293.5,182.5C 294.015,179.137 295.348,176.137 297.5,173.5C 295.926,172.369 294.259,172.202 292.5,173C 287.786,174.774 283.286,176.941 279,179.5C 278.228,179.355 277.561,179.022 277,178.5C 276.667,176.5 276.333,174.5 276,172.5C 255.589,187.925 252.089,184.591 265.5,162.5C 264.132,161.406 262.965,161.74 262,163.5C 261.51,164.793 261.343,166.127 261.5,167.5C 260.448,167.351 259.448,167.517 258.5,168C 255.167,172.667 251.167,176.667 246.5,180C 243.208,180.896 240.875,179.729 239.5,176.5C 229.379,183.586 218.379,185.419 206.5,182C 204.198,187.74 202.198,193.573 200.5,199.5C 198.365,199.853 197.032,199.02 196.5,197C 199.816,189.054 202.316,180.888 204,172.5C 205.093,170.651 206.426,168.984 208,167.5C 214.42,152.154 222.254,137.654 231.5,124C 234.091,123.699 234.925,124.866 234,127.5C 225.054,137.727 219.054,149.393 216,162.5C 220.941,158.769 226.441,156.935 232.5,157C 233.747,158.494 233.747,159.994 232.5,161.5C 231.784,160.689 230.95,160.022 230,159.5C 222.733,161.631 216.4,165.298 211,170.5C 205.913,178.706 208.08,182.706 217.5,182.5C 225.811,182.177 233.144,179.344 239.5,174C 242.443,168.789 246.11,164.122 250.5,160C 254.388,157.777 257.888,158.277 261,161.5C 262.87,159.781 265.037,158.781 267.5,158.5C 265.97,165.57 263.303,172.236 259.5,178.5C 261.187,179.568 262.854,179.401 264.5,178C 270.669,173.326 276.669,168.493 282.5,163.5C 282.833,164.333 283.167,165.167 283.5,166C 282.346,169.135 281.346,172.302 280.5,175.5C 284.47,174.118 288.47,172.618 292.5,171C 296.482,169.579 299.148,170.746 300.5,174.5C 298.702,177.564 297.702,180.897 297.5,184.5C 302.851,183.326 307.351,180.659 311,176.5C 312.608,173.228 314.608,170.228 317,167.5C 322.139,155.888 327.806,144.554 334,133.5C 335.954,129.718 338.454,126.385 341.5,123.5C 343.283,124.348 343.783,125.681 343,127.5C 334.054,137.727 328.054,149.393 325,162.5C 329.941,158.769 335.441,156.935 341.5,157C 342.747,158.494 342.747,159.994 341.5,161.5C 340.784,160.689 339.95,160.022 339,159.5C 331.733,161.631 325.4,165.298 320,170.5C 318.096,173.622 317.429,176.955 318,180.5C 331.909,184.398 343.576,180.731 353,169.5C 351.305,164.667 352.805,161.167 357.5,159C 361.318,157.056 365.318,156.389 369.5,157C 372.408,160.542 371.741,163.375 367.5,165.5C 366.22,163.276 366.553,161.276 368.5,159.5C 362.821,158.116 358.488,159.949 355.5,165C 356.579,167.155 357.913,169.155 359.5,171C 365.181,170.169 370.847,169.002 376.5,167.5C 380.596,156.642 385.762,146.309 392,136.5C 396.53,127.415 402.03,119.082 408.5,111.5 Z"/></g>
<g><path style="opacity:1" fill="#1e1c17" d="M 254.5,161.5 C 256.429,161.231 258.095,161.731 259.5,163C 254.963,168.703 249.963,173.869 244.5,178.5C 245.132,171.471 248.466,165.804 254.5,161.5 Z"/></g>
<g><path style="opacity:1" fill="#1e1c17" d="M 428.5,161.5 C 430.429,161.231 432.095,161.731 433.5,163C 428.963,168.703 423.963,173.869 418.5,178.5C 419.132,171.471 422.466,165.804 428.5,161.5 Z"/></g>
<g><path style="opacity:1" fill="#c9a85c" d="M 206.5,123.5 C 210.824,123.158 212.824,125.158 212.5,129.5C 211.334,135.497 210.168,141.497 209,147.5C 203.474,163.745 198.141,180.078 193,196.5C 192.29,197.973 191.124,198.64 189.5,198.5C 195.695,176.414 202.195,154.414 209,132.5C 209.808,130.421 209.641,128.421 208.5,126.5C 205.111,129.6 201.945,132.933 199,136.5C 192.129,145.74 185.629,155.24 179.5,165C 184.972,165.633 190.305,166.8 195.5,168.5C 194.667,168.833 193.833,169.167 193,169.5C 187.362,166.782 181.862,166.949 176.5,170C 169.496,181.51 163.163,193.343 157.5,205.5C 156.675,206.386 155.675,206.719 154.5,206.5C 155.065,199.703 157.565,193.703 162,188.5C 162.887,183.928 162.22,179.595 160,175.5C 157.697,173.607 155.53,171.607 153.5,169.5C 155.22,168.066 157.22,167.233 159.5,167C 164.799,166.07 170.133,165.403 175.5,165C 184.99,150.512 195.324,136.678 206.5,123.5 Z"/></g>
<g><path style="opacity:1" fill="#c1a85e" d="M 108.5,152.5 C 110.008,157.654 113.341,159.321 118.5,157.5C 117.602,165.124 117.269,172.791 117.5,180.5C 116.378,175.035 113.045,171.368 107.5,169.5C 107.178,163.642 107.511,157.975 108.5,152.5 Z"/></g>
<g><path style="opacity:1" fill="#1b1915" d="M 162.5,168.5 C 166.182,168.335 169.848,168.501 173.5,169C 170.792,173.584 167.958,178.084 165,182.5C 163.923,177.594 161.423,173.594 157.5,170.5C 159.291,169.83 160.958,169.163 162.5,168.5 Z"/></g>
<g><path style="opacity:1" fill="#d3c281" d="M 107.5,169.5 C 113.045,171.368 116.378,175.035 117.5,180.5C 118.239,185.82 118.906,191.154 119.5,196.5C 118.596,195.791 118.263,194.791 118.5,193.5C 116.143,193.337 113.81,193.503 111.5,194C 110.027,194.71 109.36,195.876 109.5,197.5C 107.88,188.384 107.213,179.051 107.5,169.5 Z"/></g>
<g><path style="opacity:1" fill="#242119" d="M 353.5,179.5 C 354.497,179.47 355.164,179.97 355.5,181C 354.555,186.114 351.555,188.948 346.5,189.5C 346.343,188.127 346.51,186.793 347,185.5C 349.063,183.266 351.229,181.266 353.5,179.5 Z"/></g>
<g><path style="opacity:1" fill="#eee7ad" d="M 119.5,196.5 C 120.835,202.84 122.168,209.173 123.5,215.5C 123.92,217.674 123.92,219.674 123.5,221.5C 120.721,219.376 117.721,217.709 114.5,216.5C 112.202,210.348 110.535,204.015 109.5,197.5C 109.36,195.876 110.027,194.71 111.5,194C 113.81,193.503 116.143,193.337 118.5,193.5C 118.263,194.791 118.596,195.791 119.5,196.5 Z"/></g>
<g><path style="opacity:1" fill="#cba754" d="M 218.5,205.5 C 220.966,204.366 223.633,204.199 226.5,205C 224.761,209.192 223.928,213.692 224,218.5C 221.865,220.278 219.365,220.945 216.5,220.5C 216.596,215.89 217.596,215.556 219.5,219.5C 220.086,219.291 220.586,218.957 221,218.5C 221.499,214.179 221.666,209.846 221.5,205.5C 220.5,205.5 219.5,205.5 218.5,205.5 Z"/></g>
<g><path style="opacity:1" fill="#cfa550" d="M 300.5,204.5 C 305.833,204.5 311.167,204.5 316.5,204.5C 316.545,209.947 315.545,210.447 313.5,206C 312.207,205.51 310.873,205.343 309.5,205.5C 309.5,210.167 309.5,214.833 309.5,219.5C 308.833,220.833 308.167,220.833 307.5,219.5C 307.5,214.833 307.5,210.167 307.5,205.5C 304.159,204.843 302.159,206.176 301.5,209.5C 300.548,207.955 300.215,206.288 300.5,204.5 Z"/></g>
<g><path style="opacity:1" fill="#c39744" d="M 282.5,206.5 C 283.151,205.909 283.818,205.243 284.5,204.5C 285.833,206.5 285.833,208.5 284.5,210.5C 283.638,209.234 282.971,207.901 282.5,206.5 Z"/></g>
<g><path style="opacity:1" fill="#d3a24f" d="M 360.5,205.5 C 363.976,204.357 367.642,204.19 371.5,205C 375.5,207.667 375.5,210.333 371.5,213C 369.527,213.495 367.527,213.662 365.5,213.5C 365.083,216.079 365.75,218.246 367.5,220C 365.167,220.667 362.833,220.667 360.5,220C 361.76,217.787 362.426,215.287 362.5,212.5C 362.471,209.731 361.805,207.397 360.5,205.5 Z"/></g>
<g><path style="opacity:1" fill="#1b1d18" d="M 365.5,205.5 C 370.22,205.206 371.886,207.206 370.5,211.5C 368.929,212.309 367.262,212.643 365.5,212.5C 365.5,210.167 365.5,207.833 365.5,205.5 Z"/></g>
<g><path style="opacity:1" fill="#cfa54f" d="M 247.5,204.5 C 248.376,204.369 249.043,204.702 249.5,205.5C 250.938,210.873 253.271,215.706 256.5,220C 254.167,220.667 251.833,220.667 249.5,220C 251.689,219.323 252.022,218.156 250.5,216.5C 248.604,215.534 246.604,215.201 244.5,215.5C 244.286,217.144 244.62,218.644 245.5,220C 243.833,220.667 242.167,220.667 240.5,220C 243.508,215.15 245.841,209.983 247.5,204.5 Z"/></g>
<g><path style="opacity:1" fill="#24241d" d="M 247.5,208.5 C 248.738,210.214 249.405,212.214 249.5,214.5C 248.127,214.657 246.793,214.49 245.5,214C 246.244,212.185 246.911,210.352 247.5,208.5 Z"/></g>
<g><path style="opacity:1" fill="#caa552" d="M 282.5,206.5 C 276.773,204.707 273.773,206.874 273.5,213C 274.056,218.102 276.723,219.935 281.5,218.5C 282.386,217.675 282.719,216.675 282.5,215.5C 280.294,214.416 281.627,214.249 286.5,215C 285.62,216.356 285.286,217.856 285.5,219.5C 279.87,221.701 275.036,220.701 271,216.5C 269.227,209.697 271.727,205.697 278.5,204.5C 280.355,204.34 281.688,205.007 282.5,206.5 Z"/></g>
<g><path style="opacity:1" fill="#d1a54e" d="M 336.5,204.5 C 337.5,204.5 338.5,204.5 339.5,204.5C 340.889,209.168 342.389,213.835 344,218.5C 344.75,219.126 345.584,219.626 346.5,220C 344.167,220.667 341.833,220.667 339.5,220C 341.689,219.323 342.022,218.156 340.5,216.5C 338.604,215.534 336.604,215.201 334.5,215.5C 334.286,217.144 334.62,218.644 335.5,220C 333.5,220.667 331.5,220.667 329.5,220C 331.333,219.5 332.5,218.333 333,216.5C 334.477,212.57 335.644,208.57 336.5,204.5 Z"/></g>
<g><path style="opacity:1" fill="#20201c" d="M 336.5,210.5 C 338.912,210.694 339.912,212.027 339.5,214.5C 335.814,214.87 334.814,213.537 336.5,210.5 Z"/></g>
<g><path style="opacity:1" fill="#d9ca8c" d="M 123.5,215.5 C 126.204,221.267 128.538,227.267 130.5,233.5C 128.365,235.369 125.698,236.036 122.5,235.5C 119.453,229.369 116.786,223.035 114.5,216.5C 117.721,217.709 120.721,219.376 123.5,221.5C 123.92,219.674 123.92,217.674 123.5,215.5 Z"/></g>
<g><path style="opacity:1" fill="#bda25f" d="M 130.5,233.5 C 136.998,246.495 144.998,258.495 154.5,269.5C 151.821,269.327 149.487,268.327 147.5,266.5C 146.614,267.325 146.281,268.325 146.5,269.5C 136.536,259.578 128.536,248.245 122.5,235.5C 125.698,236.036 128.365,235.369 130.5,233.5 Z"/></g>
<g><path style="opacity:1" fill="#ae8d47" d="M 154.5,269.5 C 171.694,286.754 191.694,299.421 214.5,307.5C 213.127,307.343 211.793,307.51 210.5,308C 211.252,308.671 211.586,309.504 211.5,310.5C 201.137,307.212 191.137,303.045 181.5,298C 173.659,292.913 165.992,287.58 158.5,282C 153.705,278.47 149.705,274.303 146.5,269.5C 146.281,268.325 146.614,267.325 147.5,266.5C 149.487,268.327 151.821,269.327 154.5,269.5 Z"/></g>
<g><path style="opacity:1" fill="#645e44" d="M 322.5,300.5 C 325.663,297.585 329.33,295.752 333.5,295C 330.09,297.372 326.423,299.205 322.5,300.5 Z"/></g>
<g><path style="opacity:1" fill="#8c7e50" d="M 322.5,300.5 C 314.121,305.517 305.121,309.184 295.5,311.5C 295.158,310.662 294.492,310.328 293.5,310.5C 303.232,307.589 312.898,304.255 322.5,300.5 Z"/></g>
<g><path style="opacity:1" fill="#b29d62" d="M 214.5,307.5 C 226.196,310.307 237.862,312.64 249.5,314.5C 248.022,314.238 246.689,314.571 245.5,315.5C 251.463,316.496 257.463,316.829 263.5,316.5C 245.886,318.098 228.552,316.098 211.5,310.5C 211.586,309.504 211.252,308.671 210.5,308C 211.793,307.51 213.127,307.343 214.5,307.5 Z"/></g>
<g><path style="opacity:1" fill="#d7cc93" d="M 293.5,310.5 C 294.492,310.328 295.158,310.662 295.5,311.5C 285.012,314.248 274.345,315.915 263.5,316.5C 257.463,316.829 251.463,316.496 245.5,315.5C 246.689,314.571 248.022,314.238 249.5,314.5C 256.841,314.666 264.174,314.5 271.5,314C 278.833,312.797 286.166,311.63 293.5,310.5 Z"/></g>
</svg>
